<?xml version="1.0" encoding="iso-8859-1"?>
<!-- Generator: Adobe Illustrator 24.0.3, SVG Export Plug-In . SVG Version: 6.00 Build 0)  -->
<svg version="1.1" xmlns="http://www.w3.org/2000/svg" xmlns:xlink="http://www.w3.org/1999/xlink" x="0px" y="0px"
	 viewBox="0 0 64 64" style="enable-background:new 0 0 64 64;" xml:space="preserve">
<g id="beer-glass">
	<path style="fill:#231F20;" d="M35.898,25.705v30.188h1.868V25.705H35.898z M28.425,55.893h1.868V25.705h-1.868V55.893z
		 M20.953,55.893h1.868V25.705h-1.868V55.893z M51.664,21.389h-2.858v-1.999c0.009-0.075,0.019-0.177,0.019-0.308
		c0-1.532-0.738-6.65-5.193-8.322c0-3.886-3.157-7.043-7.043-7.043c-1.476,0-2.914,0.486-4.11,1.354
		c-0.196-0.047-0.383-0.075-0.57-0.103C29.948,1.896,26.539,0,22.877,0c-5.305,0-9.845,3.97-10.629,9.154
		c-6.342,0.691-8.5,5.754-8.369,10.377c0.009,0.243,0.019,0.504,0.056,0.747v36.455C3.935,60.88,6.831,64,10.66,64h31.094
		c3.951,0,7.052-3.194,7.052-7.267v-4.044h2.858c4.904,0,8.462-3.484,8.462-8.285V30.73C60.127,25.583,56.334,21.389,51.664,21.389z
		 M7.522,13.45c1.233-1.522,3.11-2.363,5.558-2.494c0.364-0.019,0.682-0.252,0.822-0.588c0.075-0.121,0.112-0.252,0.131-0.392
		c0.392-4.549,4.278-8.107,8.845-8.107c3.157,0,6.109,1.7,7.696,4.465c0.159,0.252,0.308,0.542,0.458,0.897
		c0.121,0.299,0.402,0.514,0.719,0.56c0.047,0.009,0.093,0.009,0.14,0.009c0.009,0,0.019-0.009,0.028-0.009
		c0.121,0,0.234-0.028,0.346-0.075c0.019-0.009,0.028-0.019,0.047-0.028c0.112-0.056,0.215-0.121,0.299-0.224
		c0.224-0.271,0.448-0.495,0.672-0.682V6.772c0.925-0.766,2.102-1.186,3.307-1.186c2.849,0,5.175,2.326,5.175,5.175
		c0,0.187-0.009,0.374-0.028,0.551c-0.065,0.467,0.234,0.906,0.682,1.027c3.437,0.906,4.269,4.418,4.465,6.034H15.508
		c-0.523,0-0.934,0.42-0.934,0.934v13.992c0,0.757-0.42,1.401-1.037,1.747h-0.056v0.028c-0.28,0.149-0.588,0.234-0.925,0.234
		c-1.102,0-2.008-0.897-2.008-2.008V19.306c0-0.514-0.42-0.934-0.934-0.934H5.775C5.869,16.99,6.251,15.01,7.522,13.45z
		 M46.938,56.733c0,3.026-2.279,5.399-5.184,5.399H10.66c-2.811,0-4.857-2.27-4.857-5.399V20.24H8.68v13.058
		c0,2.139,1.737,3.876,3.876,3.876c0.327,0,0.626-0.047,0.925-0.121v18.839h1.868V35.979c0.672-0.691,1.093-1.635,1.093-2.681V20.24
		h30.496V56.733z M58.258,44.404c0,3.783-2.709,6.417-6.594,6.417h-2.858V23.257h2.858c4.072,0,6.594,3.876,6.594,7.472V44.404z
		 M37.766,25.705h-1.868v30.188h1.868V25.705z M30.294,25.705h-1.868v30.188h1.868V25.705z M22.821,25.705h-1.868v30.188h1.868
		V25.705z M28.425,25.705v30.188h1.868V25.705H28.425z M35.898,25.705v30.188h1.868V25.705H35.898z M20.953,25.705v30.188h1.868
		V25.705H20.953z"/>
	<path style="fill:#75B056;" d="M16.442,20.24v13.058c0,1.046-0.42,1.989-1.093,2.681v19.914h-1.868V37.053
		c-0.299,0.075-0.598,0.121-0.925,0.121c-2.139,0-3.876-1.737-3.876-3.876V20.24H5.803v36.493c0,3.129,2.046,5.399,4.857,5.399
		h31.094c2.905,0,5.184-2.372,5.184-5.399V20.24H16.442z M22.821,55.893h-1.868V25.705h1.868V55.893z M30.294,55.893h-1.868V25.705
		h1.868V55.893z M37.766,55.893h-1.868V25.705h1.868V55.893z"/>
</g>
<g id="Layer_1">
</g>
</svg>
