<?xml version="1.0" encoding="iso-8859-1"?>
<!-- Generator: Adobe Illustrator 24.0.3, SVG Export Plug-In . SVG Version: 6.00 Build 0)  -->
<svg version="1.1" xmlns="http://www.w3.org/2000/svg" xmlns:xlink="http://www.w3.org/1999/xlink" x="0px" y="0px"
	 viewBox="0 0 64 64" style="enable-background:new 0 0 64 64;" xml:space="preserve">
<g id="burger">
	<rect x="30.943" y="15.705" style="fill:#231F20;" width="2.125" height="2.646"/>
	<rect x="35.778" y="15.705" style="fill:#231F20;" width="2.125" height="2.646"/>
	<rect x="40.612" y="15.705" style="fill:#231F20;" width="2.125" height="2.646"/>
	<rect x="21.262" y="15.705" style="fill:#231F20;" width="2.125" height="2.646"/>
	<rect x="26.097" y="15.705" style="fill:#231F20;" width="2.125" height="2.646"/>
	<rect x="30.996" y="11.455" style="fill:#231F20;" width="2.125" height="2.646"/>
	<rect x="36.309" y="11.455" style="fill:#231F20;" width="2.125" height="2.646"/>
	<rect x="25.566" y="11.455" style="fill:#231F20;" width="2.125" height="2.646"/>
	<path style="fill:#231F20;" d="M61.503,37.031C63.012,35.969,64,34.226,64,32.25c0-3.039-2.327-5.536-5.292-5.812
		C55.085,14.834,44.225,6.779,32.005,6.779S8.926,14.834,5.292,26.437C2.327,26.714,0,29.211,0,32.25
		c0,1.976,0.988,3.719,2.497,4.782C0.988,38.094,0,39.837,0,41.813c0,2.933,2.178,5.377,5.005,5.781v1.126
		c0,4.686,3.815,8.501,8.501,8.501h36.989c4.686,0,8.501-3.815,8.501-8.501v-1.126C61.822,47.19,64,44.746,64,41.813
		C64,39.837,63.012,38.094,61.503,37.031z M32.005,8.905c11.062,0,20.933,7.13,24.482,17.501H7.513
		C11.062,16.035,20.944,8.905,32.005,8.905z M2.125,32.25c0-2.051,1.668-3.719,3.719-3.719h52.311c2.051,0,3.719,1.668,3.719,3.719
		s-1.668,3.719-3.719,3.719H5.844C3.793,35.969,2.125,34.3,2.125,32.25z M44.555,38.094l-5.727,7.438l-1.636,2.125l-0.521,0.669
		l-0.818-0.669l-2.582-2.125l-9.043-7.438H44.555z M2.125,41.813c0-2.051,1.668-3.719,3.719-3.719H20.88l9.043,7.438H5.844
		C3.793,45.532,2.125,43.864,2.125,41.813z M56.87,48.72c0,3.517-2.858,6.376-6.376,6.376H13.506c-3.517,0-6.376-2.858-6.376-6.376
		v-1.063h25.375l3.655,3.007c0.191,0.149,0.436,0.234,0.68,0.234h0.117c0.287-0.032,0.553-0.181,0.723-0.414l2.178-2.827H56.87
		V48.72z M58.156,45.532H41.494l5.738-7.438h10.923c2.051,0,3.719,1.668,3.719,3.719S60.207,45.532,58.156,45.532z"/>
	<path style="fill:#FAB11C;" d="M56.87,47.657v1.063c0,3.517-2.858,6.376-6.376,6.376H13.506c-3.517,0-6.376-2.858-6.376-6.376
		v-1.063h25.375l3.655,3.007c0.191,0.149,0.436,0.234,0.68,0.234h0.117c0.287-0.032,0.553-0.181,0.723-0.414l2.178-2.827H56.87z"/>
	<path style="fill:#F5B309;" d="M32.005,8.905c-11.062,0-20.944,7.13-24.493,17.501h48.975C52.938,16.035,43.067,8.905,32.005,8.905
		z M23.388,18.351h-2.125v-2.646h2.125V18.351z M25.566,11.455h2.125v2.646h-2.125V11.455z M28.223,18.351h-2.125v-2.646h2.125
		V18.351z M33.068,18.351h-2.125v-2.646h2.125V18.351z M33.121,14.101h-2.125v-2.646h2.125V14.101z M37.903,18.351h-2.125v-2.646
		h2.125V18.351z M38.434,14.101h-2.125v-2.646h2.125V14.101z M42.738,18.351h-2.125v-2.646h2.125V18.351z"/>
	<polygon style="fill:#F8DF96;" points="44.555,38.094 38.827,45.532 37.191,47.657 36.67,48.327 35.852,47.657 33.27,45.532 
		24.227,38.094 	"/>
	<path style="fill:#F75D6A;" d="M61.875,41.813c0,2.051-1.668,3.719-3.719,3.719H41.494l5.738-7.438h10.923
		C60.207,38.094,61.875,39.762,61.875,41.813z M20.88,38.094H5.844c-2.051,0-3.719,1.668-3.719,3.719s1.668,3.719,3.719,3.719
		h24.078L20.88,38.094z"/>
	<path style="fill:#D0643D;" d="M58.156,28.531H5.844c-2.051,0-3.719,1.668-3.719,3.719s1.668,3.719,3.719,3.719h52.311
		c2.051,0,3.719-1.668,3.719-3.719S60.207,28.531,58.156,28.531z M59.697,32.25c-0.999,0-1.456,0.351-2.083,0.839
		c-0.744,0.574-1.658,1.286-3.39,1.286c-1.732,0-2.656-0.712-3.39-1.286c-0.627-0.489-1.084-0.839-2.083-0.839
		c-1.009,0-1.456,0.351-2.083,0.839c-0.744,0.574-1.658,1.286-3.39,1.286c-1.732,0-2.646-0.712-3.39-1.286
		c-0.627-0.489-1.073-0.839-2.083-0.839c-0.999,0-1.456,0.351-2.083,0.839c-0.733,0.574-1.647,1.286-3.379,1.286
		c-1.732,0-2.656-0.712-3.39-1.286c-0.627-0.489-1.084-0.839-2.083-0.839c-0.999,0-1.456,0.351-2.083,0.839
		c-0.733,0.574-1.658,1.286-3.39,1.286c-1.732,0-2.646-0.712-3.379-1.286c-0.627-0.489-1.084-0.839-2.083-0.839
		c-1.009,0-1.456,0.351-2.083,0.839c-0.733,0.574-1.658,1.286-3.39,1.286s-2.646-0.712-3.379-1.286
		C6.461,32.6,6.004,32.25,5.005,32.25v-2.125c1.732,0,2.646,0.712,3.39,1.286c0.627,0.489,1.073,0.839,2.072,0.839
		c1.009,0,1.456-0.351,2.083-0.839c0.733-0.574,1.658-1.286,3.39-1.286c1.732,0,2.646,0.712,3.379,1.286
		c0.627,0.489,1.084,0.839,2.083,0.839c1.009,0,1.456-0.351,2.083-0.839c0.744-0.574,1.658-1.286,3.39-1.286
		c1.732,0,2.646,0.712,3.39,1.286c0.627,0.489,1.073,0.839,2.083,0.839c0.999,0,1.456-0.351,2.083-0.839
		c0.733-0.574,1.647-1.286,3.379-1.286c1.732,0,2.646,0.712,3.39,1.286c0.627,0.489,1.073,0.839,2.083,0.839
		c0.999,0,1.456-0.351,2.083-0.839c0.733-0.574,1.658-1.286,3.39-1.286c1.732,0,2.646,0.712,3.39,1.286
		c0.627,0.489,1.073,0.839,2.083,0.839c0.999,0,1.456-0.351,2.083-0.839c0.744-0.574,1.658-1.286,3.39-1.286V32.25z"/>
</g>
<g id="Layer_1">
</g>
</svg>
