<?xml version="1.0" encoding="iso-8859-1"?>
<!-- Generator: Adobe Illustrator 24.0.3, SVG Export Plug-In . SVG Version: 6.00 Build 0)  -->
<svg version="1.1" xmlns="http://www.w3.org/2000/svg" xmlns:xlink="http://www.w3.org/1999/xlink" x="0px" y="0px"
	 viewBox="0 0 64 64" style="enable-background:new 0 0 64 64;" xml:space="preserve">
<g id="cake">
	<path style="fill:#231F20;" d="M59.509,60.478V35.974c0-1.51-1.231-2.741-2.741-2.741h-7.03V18.77c0-0.529-0.423-0.962-0.962-0.962
		h-2.818v-1.991c2.154-0.442,3.779-2.356,3.779-4.645c0-2.231-3.25-7.992-3.904-9.126c-0.346-0.596-1.318-0.596-1.664,0
		c-0.654,1.135-3.914,6.895-3.914,9.126c0,2.289,1.625,4.203,3.779,4.645v1.991h-2.818c-0.529,0-0.962,0.433-0.962,0.962v14.464
		h-3.895V18.77c0-0.529-0.433-0.962-0.962-0.962h-2.818v-1.991c2.154-0.442,3.779-2.356,3.779-4.645c0-2.231-3.25-7.992-3.904-9.126
		c-0.346-0.596-1.327-0.596-1.673,0c-0.644,1.135-3.904,6.895-3.904,9.126c0,2.289,1.625,4.203,3.779,4.645v1.991h-2.818
		c-0.529,0-0.962,0.433-0.962,0.962v14.464h-3.895V18.77c0-0.529-0.433-0.962-0.962-0.962h-2.818v-1.991
		c2.154-0.442,3.779-2.356,3.779-4.645c0-2.231-3.26-7.992-3.914-9.126c-0.337-0.596-1.318-0.596-1.664,0
		c-0.654,1.135-3.904,6.895-3.904,9.126c0,2.289,1.625,4.203,3.779,4.645v1.991h-2.818c-0.539,0-0.962,0.433-0.962,0.962v14.464
		h-7.03c-1.51,0-2.741,1.231-2.741,2.741v24.504H0v1.923h64v-1.923H59.509z M42.179,11.172c0-1.039,1.462-4.135,2.818-6.664
		c1.366,2.529,2.818,5.626,2.818,6.664c0,1.558-1.26,2.818-2.818,2.818C43.449,13.99,42.179,12.73,42.179,11.172z M42.179,19.731
		h5.635v13.502h-5.635V19.731z M28.802,11.172c0-1.039,1.452-4.135,2.818-6.664c1.366,2.529,2.818,5.626,2.818,6.664
		c0,1.558-1.26,2.818-2.818,2.818C30.062,13.99,28.802,12.73,28.802,11.172z M28.802,19.731h5.635v13.502h-5.635V19.731z
		 M15.425,11.172c0-1.039,1.452-4.135,2.818-6.664c1.356,2.529,2.818,5.626,2.818,6.664c0,1.558-1.269,2.818-2.818,2.818
		C16.685,13.99,15.425,12.73,15.425,11.172z M15.425,19.731h5.635v13.502h-5.635V19.731z M57.586,60.478H5.655v-4.905h51.931V60.478
		z M57.586,53.65H5.655v-7.684c1.731-0.394,3.202-1.568,3.953-3.222c0.125-0.269,0.567-0.269,0.683,0
		c0.942,2.048,3,3.376,5.251,3.376c2.241,0,4.299-1.327,5.241-3.376c0.125-0.269,0.567-0.269,0.683,0
		c0.942,2.048,3,3.376,5.251,3.376c2.241,0,4.299-1.327,5.241-3.376c0.125-0.269,0.567-0.269,0.683,0
		c0.942,2.048,3,3.376,5.251,3.376c2.241,0,4.299-1.327,5.241-3.376c0.058-0.135,0.192-0.221,0.337-0.221h0.01
		c0.144,0,0.279,0.087,0.337,0.221c0.942,2.048,2.991,3.376,5.241,3.376c2.25,0,4.308-1.327,5.251-3.376
		c0.115-0.269,0.558-0.269,0.683,0c0.539,1.183,1.462,2.106,2.597,2.693V53.65z M57.586,43.139
		c-0.356-0.337-0.635-0.741-0.846-1.192c-0.375-0.817-1.192-1.346-2.096-1.346c-0.894,0-1.712,0.529-2.087,1.346
		c-0.625,1.366-2,2.25-3.501,2.25c-1.491,0-2.866-0.885-3.491-2.25c-0.375-0.817-1.192-1.346-2.096-1.346
		c-0.894,0-1.712,0.529-2.087,1.346c-0.625,1.366-2,2.25-3.491,2.25c-1.5,0-2.875-0.885-3.501-2.25
		c-0.375-0.817-1.192-1.346-2.087-1.346c-0.904,0-1.721,0.529-2.096,1.346c-0.625,1.366-2,2.25-3.491,2.25
		c-1.5,0-2.875-0.885-3.501-2.25c-0.375-0.817-1.192-1.346-2.087-1.346c-0.904,0-1.721,0.529-2.096,1.346
		c-0.625,1.366-2,2.25-3.491,2.25c-1.5,0-2.875-0.885-3.501-2.25c-0.365-0.817-1.192-1.346-2.087-1.346
		c-0.904,0-1.721,0.529-2.096,1.346c-0.433,0.962-1.241,1.683-2.202,2.029v-8.001c0-0.452,0.365-0.817,0.817-0.817h50.296
		c0.452,0,0.817,0.365,0.817,0.817V43.139z"/>
	<path style="fill:#EF7B9A;" d="M57.586,35.974v7.165c-0.356-0.337-0.635-0.741-0.846-1.192c-0.375-0.817-1.192-1.346-2.096-1.346
		c-0.894,0-1.712,0.529-2.087,1.346c-0.625,1.366-2,2.25-3.501,2.25c-1.491,0-2.866-0.885-3.491-2.25
		c-0.375-0.817-1.192-1.346-2.096-1.346c-0.894,0-1.712,0.529-2.087,1.346c-0.625,1.366-2,2.25-3.491,2.25
		c-1.5,0-2.875-0.885-3.501-2.25c-0.375-0.817-1.192-1.346-2.087-1.346c-0.904,0-1.721,0.529-2.096,1.346
		c-0.625,1.366-2,2.25-3.491,2.25c-1.5,0-2.875-0.885-3.501-2.25c-0.375-0.817-1.192-1.346-2.087-1.346
		c-0.904,0-1.721,0.529-2.096,1.346c-0.625,1.366-2,2.25-3.491,2.25c-1.5,0-2.875-0.885-3.501-2.25
		c-0.365-0.817-1.192-1.346-2.087-1.346c-0.904,0-1.721,0.529-2.096,1.346c-0.433,0.962-1.241,1.683-2.202,2.029v-8.001
		c0-0.452,0.365-0.817,0.817-0.817h50.296C57.22,35.157,57.586,35.522,57.586,35.974z"/>
	<rect x="5.655" y="55.573" style="fill:#C465B0;" width="51.931" height="4.905"/>
	<path style="fill:#DCC6D7;" d="M57.586,45.437v8.213H5.655v-7.684c1.731-0.394,3.202-1.568,3.953-3.222
		c0.125-0.269,0.567-0.269,0.683,0c0.942,2.048,3,3.376,5.251,3.376c2.241,0,4.299-1.327,5.241-3.376
		c0.125-0.269,0.567-0.269,0.683,0c0.942,2.048,3,3.376,5.251,3.376c2.241,0,4.299-1.327,5.241-3.376
		c0.125-0.269,0.567-0.269,0.683,0c0.942,2.048,3,3.376,5.251,3.376c2.241,0,4.299-1.327,5.241-3.376
		c0.058-0.135,0.192-0.221,0.337-0.221h0.01c0.144,0,0.279,0.087,0.337,0.221c0.942,2.048,2.991,3.376,5.241,3.376
		c2.25,0,4.308-1.327,5.251-3.376c0.115-0.269,0.558-0.269,0.683,0C55.528,43.927,56.451,44.85,57.586,45.437z"/>
</g>
<g id="Layer_1">
</g>
</svg>
