<?xml version="1.0" encoding="iso-8859-1"?>
<!-- Generator: Adobe Illustrator 24.0.3, SVG Export Plug-In . SVG Version: 6.00 Build 0)  -->
<svg version="1.1" xmlns="http://www.w3.org/2000/svg" xmlns:xlink="http://www.w3.org/1999/xlink" x="0px" y="0px"
	 viewBox="0 0 64 64" style="enable-background:new 0 0 64 64;" xml:space="preserve">
<g id="chicken">
	<path style="fill:#231F20;" d="M54.649,9.516c-0.067-0.067-0.145-0.133-0.222-0.2l-1.345,1.768c2.59,2.601,3.78,5.725,3.357,8.827
		c-0.478,3.335-2.724,6.237-6.437,8.227l1.134,1.912c4.269-2.29,6.926-5.781,7.504-9.838C59.162,16.409,57.75,12.618,54.649,9.516z
		 M54.649,9.516c-0.067-0.067-0.145-0.133-0.222-0.2l-1.345,1.768c2.59,2.601,3.78,5.725,3.357,8.827
		c-0.478,3.335-2.724,6.237-6.437,8.227l1.134,1.912c4.269-2.29,6.926-5.781,7.504-9.838C59.162,16.409,57.75,12.618,54.649,9.516z
		 M57.506,5.314C52.348,0,46.078,0,43.721,0c-6.737,0-12.673,3.602-15.864,9.616c-4.88,8.793-10.205,26.48-10.428,27.225
		c-0.122,0.411,0,0.856,0.322,1.145c0.289,0.256,0.545,0.478,0.8,0.723L14.228,43c-0.167,0.167-0.389,0.233-0.6,0.2
		c-0.222-0.033-0.411-0.167-0.511-0.356c-0.345-0.645-0.7-1.134-1.101-1.545c-1.267-1.267-2.946-1.968-4.736-1.968
		c-1.779,0-3.446,0.689-4.714,1.934c-2.612,2.59-2.624,6.837-0.033,9.449c0.978,0.989,2.246,1.634,3.646,1.857
		c0.2,0.033,0.378,0.156,0.489,0.322c0.1,0.167,0.133,0.378,0.067,0.578c-0.867,2.868-0.089,5.981,2.023,8.104
		C10.292,63.133,12.349,64,14.539,64c2.157,0,4.202-0.845,5.736-2.368c3.046-3.013,3.224-7.893,0.411-11.128
		c-0.245-0.278-0.233-0.689,0.033-0.956l4.78-4.736c0.934,0.778,1.167,0.889,1.367,0.889h0.1c0.089-0.011,0.178-0.033,0.267-0.056
		c0.667-0.222,16.397-5.447,25.636-10.628c5.803-3.113,9.605-8.227,10.417-14.018C63.487,19.577,64.132,12.151,57.506,5.314z
		 M19.153,47.969c-1.09,1.089-1.156,2.835-0.145,4.002c2.045,2.346,1.923,5.892-0.289,8.082c-1.123,1.112-2.612,1.723-4.18,1.723
		c-1.59,0-3.09-0.623-4.202-1.756c-1.545-1.556-2.101-3.813-1.467-5.903c0.245-0.812,0.122-1.679-0.322-2.401
		c-0.445-0.711-1.178-1.201-2.001-1.334c-0.945-0.156-1.79-0.578-2.435-1.234c-1.723-1.745-1.723-4.569,0.022-6.303
		c0.845-0.834,1.957-1.29,3.146-1.29c1.189,0,2.312,0.467,3.157,1.312c0.245,0.256,0.478,0.589,0.723,1.034
		c0.434,0.812,1.234,1.367,2.134,1.501c0.9,0.145,1.834-0.167,2.49-0.823l4.436-4.391c1.545,1.367,2.701,2.39,3.591,3.168
		L19.153,47.969z M61.086,20.689c-0.711,5.092-4.091,9.605-9.283,12.384c-8.082,4.525-21.678,9.238-24.68,10.261
		c-1.223-1.078-4.714-4.18-7.359-6.537c1.034-3.368,5.803-18.465,10.05-26.114c2.801-5.303,8.004-8.46,13.907-8.46
		c2.101,0,7.682,0,12.184,4.636C61.819,12.962,61.252,19.443,61.086,20.689z M54.427,9.316l-1.345,1.768
		c2.59,2.601,3.78,5.725,3.357,8.827c-0.478,3.335-2.724,6.237-6.437,8.227l1.134,1.912c4.269-2.29,6.926-5.781,7.504-9.838
		c0.523-3.802-0.889-7.593-3.991-10.694C54.582,9.449,54.504,9.383,54.427,9.316z M54.649,9.516c-0.067-0.067-0.145-0.133-0.222-0.2
		l-1.345,1.768c2.59,2.601,3.78,5.725,3.357,8.827c-0.478,3.335-2.724,6.237-6.437,8.227l1.134,1.912
		c4.269-2.29,6.926-5.781,7.504-9.838C59.162,16.409,57.75,12.618,54.649,9.516z M54.649,9.516c-0.067-0.067-0.145-0.133-0.222-0.2
		l-1.345,1.768c2.59,2.601,3.78,5.725,3.357,8.827c-0.478,3.335-2.724,6.237-6.437,8.227l1.134,1.912
		c4.269-2.29,6.926-5.781,7.504-9.838C59.162,16.409,57.75,12.618,54.649,9.516z"/>
	<path style="fill:#FEE1A6;" d="M19.008,51.972c2.045,2.346,1.923,5.892-0.289,8.082c-1.123,1.112-2.612,1.723-4.18,1.723
		c-1.59,0-3.09-0.623-4.202-1.756c-1.545-1.556-2.101-3.813-1.467-5.903c0.245-0.812,0.122-1.679-0.322-2.401
		c-0.445-0.711-1.178-1.201-2.001-1.334c-0.945-0.156-1.79-0.578-2.435-1.234c-1.723-1.745-1.723-4.569,0.022-6.303
		c0.845-0.834,1.957-1.29,3.146-1.29c1.189,0,2.312,0.467,3.157,1.312c0.245,0.256,0.478,0.589,0.723,1.034
		c0.434,0.812,1.234,1.367,2.134,1.501c0.9,0.145,1.834-0.167,2.49-0.823l4.436-4.391c1.545,1.367,2.701,2.39,3.591,3.168
		l-4.658,4.614C18.063,49.059,17.996,50.804,19.008,51.972z"/>
	<path style="fill:#D5A112;" d="M55.905,6.859c-4.502-4.636-10.083-4.636-12.184-4.636c-5.903,0-11.106,3.157-13.907,8.46
		c-4.247,7.648-9.016,22.745-10.05,26.114c2.646,2.357,6.137,5.458,7.359,6.537c3.002-1.023,16.598-5.736,24.68-10.261
		c5.192-2.779,8.571-7.293,9.283-12.384C61.252,19.443,61.819,12.962,55.905,6.859z M58.64,20.211
		c-0.578,4.058-3.235,7.548-7.504,9.838l-1.134-1.912c3.713-1.99,5.959-4.891,6.437-8.227c0.422-3.102-0.767-6.225-3.357-8.827
		l1.345-1.768c0.078,0.067,0.156,0.133,0.222,0.2C57.75,12.618,59.162,16.409,58.64,20.211z"/>
</g>
<g id="Layer_1">
</g>
</svg>
