<?xml version="1.0" encoding="iso-8859-1"?>
<!-- Generator: Adobe Illustrator 24.0.3, SVG Export Plug-In . SVG Version: 6.00 Build 0)  -->
<svg version="1.1" xmlns="http://www.w3.org/2000/svg" xmlns:xlink="http://www.w3.org/1999/xlink" x="0px" y="0px"
	 viewBox="0 0 64 64" style="enable-background:new 0 0 64 64;" xml:space="preserve">
<g id="chips">
	<g>
		<path style="fill:#231F20;" d="M61.248,0.939C61.248,0.423,60.825,0,60.309,0H3.691C3.165,0,2.752,0.423,2.752,0.939v5.767
			c0,0.056,0.019,0.113,0.038,0.169L2.771,6.885c0.056,0.329,6.312,33.23,0.038,50.08h0.009c-0.038,0.103-0.066,0.216-0.066,0.329
			v5.767C2.752,63.577,3.165,64,3.691,64h56.618c0.517,0,0.939-0.423,0.939-0.939v-5.767c0-0.113-0.028-0.216-0.066-0.319
			l0.028-0.009c-6.284-16.85-0.028-49.752,0.038-50.08V0.939z M59.37,62.122h-2.142v-2.01H55.35v2.01h-1.878v-2.01h-1.878v2.01
			h-1.878v-2.01h-1.878v2.01h-1.878v-2.01h-1.878v2.01H42.2v-2.01h-1.878v2.01h-1.878v-2.01h-1.878v2.01h-1.878v-2.01h-1.878v2.01
			h-1.878v-2.01h-1.878v2.01h-1.878v-2.01h-1.878v2.01h-1.878v-2.01h-1.878v2.01h-1.878v-2.01H17.78v2.01h-1.878v-2.01h-1.878v2.01
			h-1.878v-2.01h-1.878v2.01H8.387v-2.01H6.509v2.01H4.63v-3.888H59.37V62.122z M59.013,56.355H5.006
			C10.2,40.397,5.861,13.516,4.818,7.645H59.2C58.149,13.516,53.819,40.397,59.013,56.355z M59.37,5.767H4.63V1.878h2.142v2.01H8.65
			v-2.01h1.878v2.01h1.878v-2.01h1.878v2.01h1.878v-2.01h1.878v2.01h1.878v-2.01H21.8v2.01h1.878v-2.01h1.878v2.01h1.878v-2.01
			h1.878v2.01h1.878v-2.01h1.878v2.01h1.878v-2.01h1.878v2.01h1.878v-2.01h1.878v2.01h1.878v-2.01h1.878v2.01h1.878v-2.01h1.878
			v2.01h1.878v-2.01h1.878v2.01h1.878v-2.01h1.878v2.01h1.878v-2.01h1.878V5.767z"/>
		<path style="fill:#FACB14;" d="M59.37,58.233v3.888h-2.142v-2.01H55.35v2.01h-1.878v-2.01h-1.878v2.01h-1.878v-2.01h-1.878v2.01
			h-1.878v-2.01h-1.878v2.01H42.2v-2.01h-1.878v2.01h-1.878v-2.01h-1.878v2.01h-1.878v-2.01h-1.878v2.01h-1.878v-2.01h-1.878v2.01
			h-1.878v-2.01h-1.878v2.01h-1.878v-2.01h-1.878v2.01h-1.878v-2.01H17.78v2.01h-1.878v-2.01h-1.878v2.01h-1.878v-2.01h-1.878v2.01
			H8.387v-2.01H6.509v2.01H4.63v-3.888H59.37z M57.491,1.878v2.01h-1.878v-2.01h-1.878v2.01h-1.878v-2.01h-1.878v2.01h-1.878v-2.01
			H46.22v2.01h-1.878v-2.01h-1.878v2.01h-1.878v-2.01h-1.878v2.01h-1.878v-2.01h-1.878v2.01h-1.878v-2.01h-1.878v2.01h-1.878v-2.01
			h-1.878v2.01h-1.878v-2.01h-1.878v2.01H21.8v-2.01h-1.878v2.01h-1.878v-2.01h-1.878v2.01h-1.878v-2.01h-1.878v2.01h-1.878v-2.01
			H8.65v2.01H6.772v-2.01H4.63v3.888H59.37V1.878H57.491z M59.013,56.355H5.006C10.2,40.397,5.861,13.516,4.818,7.645H59.2
			C58.149,13.516,53.819,40.397,59.013,56.355z M53.593,32.329c0-7.035-9.533-12.539-21.706-12.539s-21.706,5.504-21.706,12.539
			s9.533,12.548,21.706,12.548S53.593,39.364,53.593,32.329z"/>
		<path style="fill:#231F20;" d="M17.009,30.811c0.082-0.344,0.206-0.634,0.37-0.869c0.164-0.235,0.37-0.415,0.617-0.539
			c0.247-0.124,0.534-0.186,0.863-0.186c0.298,0,0.553,0.038,0.763,0.115c0.21,0.076,0.384,0.188,0.522,0.336
			c0.138,0.147,0.244,0.326,0.318,0.536c0.075,0.21,0.127,0.447,0.158,0.711h1.446c-0.042-0.417-0.139-0.801-0.29-1.153
			c-0.151-0.352-0.359-0.655-0.625-0.909c-0.266-0.254-0.59-0.453-0.972-0.597c-0.382-0.143-0.822-0.215-1.319-0.215
			c-0.524,0-0.997,0.094-1.42,0.281c-0.423,0.187-0.783,0.453-1.081,0.797c-0.298,0.344-0.528,0.76-0.688,1.248
			c-0.161,0.488-0.241,1.032-0.241,1.632v0.677c0,0.604,0.078,1.149,0.235,1.635c0.157,0.486,0.382,0.9,0.674,1.242
			c0.293,0.342,0.646,0.606,1.061,0.792c0.415,0.186,0.879,0.278,1.391,0.278c0.512,0,0.965-0.071,1.357-0.212
			c0.392-0.141,0.724-0.338,0.995-0.591c0.271-0.252,0.484-0.552,0.637-0.898c0.153-0.346,0.249-0.724,0.287-1.133H20.62
			c-0.034,0.268-0.091,0.505-0.169,0.711c-0.078,0.207-0.188,0.381-0.33,0.522c-0.141,0.142-0.32,0.249-0.536,0.321
			c-0.216,0.073-0.481,0.109-0.794,0.109c-0.337,0-0.625-0.067-0.866-0.201s-0.438-0.322-0.591-0.565
			c-0.153-0.243-0.266-0.534-0.338-0.875c-0.073-0.34-0.109-0.719-0.109-1.136v-0.688C16.885,31.547,16.926,31.155,17.009,30.811z"
			/>
		<polygon style="fill:#231F20;" points="28.547,31.631 24.813,31.631 24.813,28.155 23.362,28.155 23.362,36.507 24.813,36.507 
			24.813,32.796 28.547,32.796 28.547,36.507 29.993,36.507 29.993,28.155 28.547,28.155 		"/>
		<rect x="31.794" y="28.155" style="fill:#231F20;" width="1.446" height="8.352"/>
		<path style="fill:#231F20;" d="M40.468,28.906c-0.26-0.237-0.578-0.422-0.955-0.554c-0.377-0.132-0.808-0.198-1.294-0.198h-3.195
			v8.352h1.451v-3.103h1.744c0.486,0,0.917-0.059,1.294-0.178c0.377-0.119,0.695-0.289,0.955-0.511
			c0.26-0.222,0.458-0.493,0.594-0.815c0.136-0.321,0.204-0.685,0.204-1.09c0-0.382-0.068-0.736-0.204-1.061
			C40.926,29.425,40.728,29.144,40.468,28.906z M39.719,31.393c-0.059,0.174-0.154,0.324-0.284,0.45
			c-0.13,0.126-0.295,0.224-0.496,0.293c-0.201,0.069-0.441,0.103-0.72,0.103h-1.744v-2.914h1.744c0.279,0,0.519,0.041,0.72,0.123
			c0.201,0.082,0.366,0.193,0.496,0.333s0.225,0.299,0.284,0.479c0.059,0.18,0.089,0.367,0.089,0.562
			C39.808,31.029,39.778,31.219,39.719,31.393z"/>
		<path style="fill:#231F20;" d="M47.676,32.73c-0.228-0.212-0.513-0.402-0.858-0.571c-0.344-0.168-0.751-0.321-1.222-0.459
			c-0.6-0.176-1.047-0.367-1.339-0.574c-0.293-0.206-0.439-0.465-0.439-0.774c0-0.164,0.03-0.317,0.089-0.459
			c0.059-0.141,0.151-0.264,0.275-0.367c0.124-0.103,0.28-0.184,0.467-0.241s0.409-0.086,0.665-0.086
			c0.271,0,0.507,0.034,0.706,0.103s0.363,0.165,0.493,0.29c0.13,0.124,0.227,0.271,0.29,0.442c0.063,0.17,0.095,0.357,0.095,0.559
			h1.446c0-0.348-0.069-0.676-0.206-0.984c-0.138-0.308-0.336-0.578-0.594-0.812c-0.258-0.233-0.575-0.418-0.949-0.554
			c-0.375-0.136-0.797-0.204-1.268-0.204c-0.44,0-0.841,0.057-1.205,0.172c-0.363,0.115-0.675,0.275-0.935,0.482
			c-0.26,0.207-0.462,0.451-0.605,0.734c-0.143,0.283-0.215,0.593-0.215,0.929c0,0.34,0.069,0.643,0.206,0.906
			c0.138,0.264,0.328,0.497,0.571,0.7c0.243,0.203,0.533,0.38,0.869,0.533c0.337,0.153,0.704,0.289,1.101,0.407
			c0.363,0.111,0.661,0.217,0.892,0.318c0.231,0.101,0.413,0.207,0.545,0.318c0.132,0.111,0.223,0.232,0.272,0.364
			c0.05,0.132,0.075,0.282,0.075,0.45c0,0.337-0.127,0.607-0.382,0.812c-0.254,0.205-0.634,0.307-1.139,0.307
			c-0.256,0-0.495-0.028-0.717-0.083c-0.222-0.055-0.414-0.143-0.576-0.264c-0.163-0.121-0.291-0.275-0.384-0.465
			c-0.094-0.189-0.141-0.416-0.141-0.68h-1.451c0,0.444,0.095,0.83,0.284,1.159c0.189,0.329,0.439,0.603,0.749,0.823
			c0.31,0.22,0.66,0.384,1.05,0.493c0.39,0.109,0.786,0.163,1.187,0.163c0.451,0,0.86-0.053,1.228-0.158
			c0.367-0.105,0.68-0.256,0.938-0.453c0.258-0.197,0.457-0.436,0.597-0.717c0.14-0.281,0.209-0.598,0.209-0.949
			c0-0.333-0.055-0.632-0.166-0.898C48.072,33.181,47.903,32.942,47.676,32.73z"/>
		<path style="fill:#231F20;" d="M31.887,19.79c-12.173,0-21.706,5.504-21.706,12.539s9.533,12.548,21.706,12.548
			s21.706-5.513,21.706-12.548S44.06,19.79,31.887,19.79z M31.887,42.999c-10.933,0-19.827-4.79-19.827-10.67
			s8.895-10.66,19.827-10.66s19.827,4.781,19.827,10.66S42.82,42.999,31.887,42.999z"/>
	</g>
</g>
<g id="Layer_1">
</g>
</svg>
