<?xml version="1.0" encoding="iso-8859-1"?>
<!-- Generator: Adobe Illustrator 24.0.3, SVG Export Plug-In . SVG Version: 6.00 Build 0)  -->
<svg version="1.1" xmlns="http://www.w3.org/2000/svg" xmlns:xlink="http://www.w3.org/1999/xlink" x="0px" y="0px"
	 viewBox="0 0 64 64" style="enable-background:new 0 0 64 64;" xml:space="preserve">
<g id="croissant">
	<path style="fill:#231F20;" d="M63.201,36.98l-1.72-0.926c1.059-4.384,2.805-13.779,0.221-20.157l-0.494-1.226
		c-0.132-0.335-0.45-0.556-0.803-0.556l-3.167-0.053C55.103,6.995,48.602,0,44.023,0c-1.314,0-2.576,0.644-3.643,1.87
		c-2.223,2.541-3.599,7.604-3.317,11.918l-0.52-0.009c-0.009,0-0.009,0-0.018,0c-0.459,0-0.847,0.362-0.873,0.829l-0.124,1.905
		c-0.071,1.103-0.291,3.432-0.662,5.399c-0.106,0.009-0.229,0.018-0.335,0.062c-0.238,0.088-0.423,0.282-0.512,0.529l-0.767,2.205
		c-1.358,3.837-3.926,6.44-7.648,7.71l-2.117,0.723c-0.238,0.079-0.432,0.256-0.529,0.485c-0.097,0.229-0.088,0.476,0.009,0.706
		c-2.311,0.529-5.099,0.75-6.034,0.82l-1.932,0.097c-0.476,0.026-0.847,0.423-0.838,0.891l0.009,0.538
		c-5.743-0.344-12.906,2.496-13.77,6.784c-0.909,4.517,7.11,11.283,14.044,13.4l0.053,3.158c0,0.353,0.221,0.67,0.547,0.803
		l1.235,0.494c5.91,2.391,14.335,1.103,19.257-0.018l1.023,2.188C36.702,63.806,37.019,64,37.354,64
		c0.062,0,0.115-0.009,0.168-0.018l1.526-0.291c9.757-1.844,22.486-14.573,24.33-24.33l0.273-1.438
		C63.731,37.544,63.545,37.165,63.201,36.98z M2.13,43.816c0.626-3.105,6.766-5.76,12.068-5.355l0.221,16.531
		C8.155,52.876,1.495,46.957,2.13,43.816z M41.703,3.035c0.741-0.838,1.517-1.27,2.32-1.27c3.37,0,9.192,5.813,11.353,12.28
		l-16.54-0.229C38.537,9.942,39.763,5.258,41.703,3.035z M37.293,16.629l0.062-1.076l0.67,0.009l18.534,0.256l3.229,0.053
		l0.282,0.688c2.346,5.796,0.706,14.732-0.203,18.631L36.508,22.68C36.957,20.528,37.213,17.846,37.293,16.629z M16.941,59.686
		l-0.688-0.282L16.2,56.175l-0.256-18.534l-0.009-0.67l1.164-0.062c1.244-0.088,4.199-0.344,6.625-0.953L34.779,59.66
		C30.597,60.577,22.402,61.892,16.941,59.686z M61.64,39.035c-1.729,9.192-13.726,21.189-22.918,22.918l-0.856,0.168l-1.023-2.214
		c0,0,0,0-0.009,0L25.013,34.536l-0.026-0.044l1.182-0.406c4.261-1.456,7.207-4.411,8.742-8.795l0.432-1.235l24.7,13.232
		l1.756,0.935L61.64,39.035z"/>
	<path style="fill:#F2A400;" d="M55.377,14.044l-16.54-0.229c-0.3-3.873,0.926-8.557,2.867-10.78c0.741-0.838,1.517-1.27,2.32-1.27
		C47.393,1.764,53.215,7.578,55.377,14.044z"/>
	<path style="fill:#E77E00;" d="M59.867,35.189L36.508,22.68c0.45-2.152,0.706-4.834,0.785-6.052l0.062-1.076l0.67,0.009
		l18.534,0.256l3.229,0.053l0.282,0.688C62.416,22.354,60.776,31.29,59.867,35.189z"/>
	<path style="fill:#F2A400;" d="M61.799,38.224l-0.159,0.812c-1.729,9.192-13.726,21.189-22.918,22.918l-0.856,0.168l-1.023-2.214
		c0,0,0,0-0.009,0L25.013,34.536l-0.026-0.044l1.182-0.406c4.261-1.456,7.207-4.411,8.742-8.795l0.432-1.235l24.7,13.232
		L61.799,38.224z"/>
	<path style="fill:#E77E00;" d="M34.779,59.66c-4.181,0.917-12.377,2.232-17.837,0.026l-0.688-0.282L16.2,56.175l-0.256-18.534
		l-0.009-0.67l1.164-0.062c1.244-0.088,4.199-0.344,6.625-0.953L34.779,59.66z"/>
	<path style="fill:#F2A400;" d="M14.419,54.993C8.155,52.876,1.495,46.957,2.13,43.816c0.626-3.105,6.766-5.76,12.068-5.355
		L14.419,54.993z"/>
</g>
<g id="Layer_1">
</g>
</svg>
