<?xml version="1.0" encoding="iso-8859-1"?>
<!-- Generator: Adobe Illustrator 24.0.3, SVG Export Plug-In . SVG Version: 6.00 Build 0)  -->
<svg version="1.1" xmlns="http://www.w3.org/2000/svg" xmlns:xlink="http://www.w3.org/1999/xlink" x="0px" y="0px"
	 viewBox="0 0 64 64" style="enable-background:new 0 0 64 64;" xml:space="preserve">
<g id="drinks">
	<path style="fill:#231F20;" d="M31.976,29.731c-5.507,0-9.988,4.481-9.988,9.98c0,5.507,4.481,9.988,9.988,9.988
		s9.98-4.481,9.98-9.988C41.956,34.212,37.483,29.731,31.976,29.731z M31.976,48.096c-4.625,0-8.385-3.76-8.385-8.385
		c0-4.617,3.76-8.377,8.385-8.377c4.617,0,8.377,3.76,8.377,8.377C40.353,44.337,36.593,48.096,31.976,48.096z M31.976,29.731
		c-5.507,0-9.988,4.481-9.988,9.98c0,5.507,4.481,9.988,9.988,9.988s9.98-4.481,9.98-9.988
		C41.956,34.212,37.483,29.731,31.976,29.731z M31.976,48.096c-4.625,0-8.385-3.76-8.385-8.385c0-4.617,3.76-8.377,8.385-8.377
		c4.617,0,8.377,3.76,8.377,8.377C40.353,44.337,36.593,48.096,31.976,48.096z M31.976,29.731c-5.507,0-9.988,4.481-9.988,9.98
		c0,5.507,4.481,9.988,9.988,9.988s9.98-4.481,9.98-9.988C41.956,34.212,37.483,29.731,31.976,29.731z M31.976,48.096
		c-4.625,0-8.385-3.76-8.385-8.385c0-4.617,3.76-8.377,8.385-8.377c4.617,0,8.377,3.76,8.377,8.377
		C40.353,44.337,36.593,48.096,31.976,48.096z M31.976,29.731c-5.507,0-9.988,4.481-9.988,9.98c0,5.507,4.481,9.988,9.988,9.988
		s9.98-4.481,9.98-9.988C41.956,34.212,37.483,29.731,31.976,29.731z M31.976,48.096c-4.625,0-8.385-3.76-8.385-8.385
		c0-4.617,3.76-8.377,8.385-8.377c4.617,0,8.377,3.76,8.377,8.377C40.353,44.337,36.593,48.096,31.976,48.096z M46.373,22.717
		l-1.908-2.645c0.649-0.465,1.082-1.218,1.082-2.084c0-1.411-1.146-2.557-2.557-2.557h-8.409l6.501-14.782L39.615,0l-6.79,15.431
		H21.01c-1.411,0-2.557,1.146-2.557,2.557c0,0.85,0.417,1.603,1.066,2.068l-1.9,2.669c-0.297,0.409-0.449,0.89-0.449,1.395v36.024
		c0,0.216,0.088,0.425,0.24,0.569l3.078,3.054C20.633,63.912,20.842,64,21.05,64h21.619c0.2,0,0.393-0.08,0.545-0.208l3.351-3.054
		c0.168-0.152,0.265-0.369,0.265-0.593V24.128C46.83,23.615,46.669,23.126,46.373,22.717z M21.01,17.034h21.98
		c0.529,0,0.954,0.425,0.954,0.954c0,0.529-0.425,0.954-0.954,0.954H21.01c-0.529,0-0.954-0.425-0.954-0.954
		C20.056,17.459,20.481,17.034,21.01,17.034z M42.365,62.397H21.379l-1.459-1.451h24.032L42.365,62.397z M45.226,59.343H18.774
		V24.12c0-0.168,0.048-0.329,0.144-0.465l2.212-3.11h21.691l2.253,3.11c0.096,0.136,0.152,0.297,0.152,0.473V59.343z M31.976,29.731
		c-5.507,0-9.988,4.481-9.988,9.98c0,5.507,4.481,9.988,9.988,9.988s9.98-4.481,9.98-9.988
		C41.956,34.212,37.483,29.731,31.976,29.731z M31.976,48.096c-4.625,0-8.385-3.76-8.385-8.385c0-4.617,3.76-8.377,8.385-8.377
		c4.617,0,8.377,3.76,8.377,8.377C40.353,44.337,36.593,48.096,31.976,48.096z M31.976,29.731c-5.507,0-9.988,4.481-9.988,9.98
		c0,5.507,4.481,9.988,9.988,9.988s9.98-4.481,9.98-9.988C41.956,34.212,37.483,29.731,31.976,29.731z M31.976,48.096
		c-4.625,0-8.385-3.76-8.385-8.385c0-4.617,3.76-8.377,8.385-8.377c4.617,0,8.377,3.76,8.377,8.377
		C40.353,44.337,36.593,48.096,31.976,48.096z M31.976,29.731c-5.507,0-9.988,4.481-9.988,9.98c0,5.507,4.481,9.988,9.988,9.988
		s9.98-4.481,9.98-9.988C41.956,34.212,37.483,29.731,31.976,29.731z M31.976,48.096c-4.625,0-8.385-3.76-8.385-8.385
		c0-4.617,3.76-8.377,8.385-8.377c4.617,0,8.377,3.76,8.377,8.377C40.353,44.337,36.593,48.096,31.976,48.096z M31.976,29.731
		c-5.507,0-9.988,4.481-9.988,9.98c0,5.507,4.481,9.988,9.988,9.988s9.98-4.481,9.98-9.988
		C41.956,34.212,37.483,29.731,31.976,29.731z M31.976,48.096c-4.625,0-8.385-3.76-8.385-8.385c0-4.617,3.76-8.377,8.385-8.377
		c4.617,0,8.377,3.76,8.377,8.377C40.353,44.337,36.593,48.096,31.976,48.096z M31.976,29.731c-5.507,0-9.988,4.481-9.988,9.98
		c0,5.507,4.481,9.988,9.988,9.988s9.98-4.481,9.98-9.988C41.956,34.212,37.483,29.731,31.976,29.731z M31.976,48.096
		c-4.625,0-8.385-3.76-8.385-8.385c0-4.617,3.76-8.377,8.385-8.377c4.617,0,8.377,3.76,8.377,8.377
		C40.353,44.337,36.593,48.096,31.976,48.096z"/>
	<path style="fill:#C4C4C4;" d="M43.952,60.946l-1.587,1.451H21.379l-1.459-1.451H43.952z M42.99,17.034H21.01
		c-0.529,0-0.954,0.425-0.954,0.954c0,0.529,0.425,0.954,0.954,0.954h21.98c0.529,0,0.954-0.425,0.954-0.954
		C43.944,17.459,43.519,17.034,42.99,17.034z"/>
	<path style="fill:#5ECCBE;" d="M45.074,23.655l-2.253-3.11H21.13l-2.212,3.11c-0.096,0.136-0.144,0.297-0.144,0.465v35.222h26.453
		V24.128C45.226,23.952,45.17,23.792,45.074,23.655z M31.976,49.699c-5.507,0-9.988-4.481-9.988-9.988
		c0-5.499,4.481-9.98,9.988-9.98s9.98,4.481,9.98,9.98C41.956,45.218,37.483,49.699,31.976,49.699z"/>
	<path style="fill:#F8DF96;" d="M40.353,39.711c0,4.625-3.76,8.385-8.377,8.385c-4.625,0-8.385-3.76-8.385-8.385
		c0-4.617,3.76-8.377,8.385-8.377C36.593,31.335,40.353,35.094,40.353,39.711z"/>
</g>
<g id="Layer_1">
</g>
</svg>
