<?xml version="1.0" encoding="iso-8859-1"?>
<!-- Generator: Adobe Illustrator 24.0.3, SVG Export Plug-In . SVG Version: 6.00 Build 0)  -->
<svg version="1.1" xmlns="http://www.w3.org/2000/svg" xmlns:xlink="http://www.w3.org/1999/xlink" x="0px" y="0px"
	 viewBox="0 0 64 64" style="enable-background:new 0 0 64 64;" xml:space="preserve">
<g id="finger-chips">
	<path style="fill:#231F20;" d="M32,34.243c-8.025,0-14.306,3.547-14.306,8.067c0,4.521,6.281,8.059,14.306,8.059
		c8.016,0,14.306-3.538,14.306-8.059C46.306,37.79,40.016,34.243,32,34.243z M32,48.66c-6.828,0-12.597-2.906-12.597-6.35
		c0-3.444,5.768-6.358,12.597-6.358c6.828,0,12.597,2.914,12.597,6.358C44.597,45.755,38.828,48.66,32,48.66z M32,34.243
		c-8.025,0-14.306,3.547-14.306,8.067c0,4.521,6.281,8.059,14.306,8.059c8.016,0,14.306-3.538,14.306-8.059
		C46.306,37.79,40.016,34.243,32,34.243z M32,48.66c-6.828,0-12.597-2.906-12.597-6.35c0-3.444,5.768-6.358,12.597-6.358
		c6.828,0,12.597,2.914,12.597,6.358C44.597,45.755,38.828,48.66,32,48.66z M32,34.243c-8.025,0-14.306,3.547-14.306,8.067
		c0,4.521,6.281,8.059,14.306,8.059c8.016,0,14.306-3.538,14.306-8.059C46.306,37.79,40.016,34.243,32,34.243z M32,48.66
		c-6.828,0-12.597-2.906-12.597-6.35c0-3.444,5.768-6.358,12.597-6.358c6.828,0,12.597,2.914,12.597,6.358
		C44.597,45.755,38.828,48.66,32,48.66z M32,34.243c-8.025,0-14.306,3.547-14.306,8.067c0,4.521,6.281,8.059,14.306,8.059
		c8.016,0,14.306-3.538,14.306-8.059C46.306,37.79,40.016,34.243,32,34.243z M32,48.66c-6.828,0-12.597-2.906-12.597-6.35
		c0-3.444,5.768-6.358,12.597-6.358c6.828,0,12.597,2.914,12.597,6.358C44.597,45.755,38.828,48.66,32,48.66z M32,34.243
		c-8.025,0-14.306,3.547-14.306,8.067c0,4.521,6.281,8.059,14.306,8.059c8.016,0,14.306-3.538,14.306-8.059
		C46.306,37.79,40.016,34.243,32,34.243z M32,48.66c-6.828,0-12.597-2.906-12.597-6.35c0-3.444,5.768-6.358,12.597-6.358
		c6.828,0,12.597,2.914,12.597,6.358C44.597,45.755,38.828,48.66,32,48.66z M32,34.243c-8.025,0-14.306,3.547-14.306,8.067
		c0,4.521,6.281,8.059,14.306,8.059c8.016,0,14.306-3.538,14.306-8.059C46.306,37.79,40.016,34.243,32,34.243z M32,48.66
		c-6.828,0-12.597-2.906-12.597-6.35c0-3.444,5.768-6.358,12.597-6.358c6.828,0,12.597,2.914,12.597,6.358
		C44.597,45.755,38.828,48.66,32,48.66z M32,34.243c-8.025,0-14.306,3.547-14.306,8.067c0,4.521,6.281,8.059,14.306,8.059
		c8.016,0,14.306-3.538,14.306-8.059C46.306,37.79,40.016,34.243,32,34.243z M32,48.66c-6.828,0-12.597-2.906-12.597-6.35
		c0-3.444,5.768-6.358,12.597-6.358c6.828,0,12.597,2.914,12.597,6.358C44.597,45.755,38.828,48.66,32,48.66z M32,34.243
		c-8.025,0-14.306,3.547-14.306,8.067c0,4.521,6.281,8.059,14.306,8.059c8.016,0,14.306-3.538,14.306-8.059
		C46.306,37.79,40.016,34.243,32,34.243z M32,48.66c-6.828,0-12.597-2.906-12.597-6.35c0-3.444,5.768-6.358,12.597-6.358
		c6.828,0,12.597,2.914,12.597,6.358C44.597,45.755,38.828,48.66,32,48.66z M53.92,15.425c-0.162-0.179-0.393-0.282-0.641-0.282
		h-2.803v-4.145c0-0.47-0.385-0.855-0.855-0.855h-3.453l0.137-3.059c0.009-0.239-0.077-0.461-0.239-0.632
		c-0.162-0.162-0.385-0.265-0.615-0.265h-4.828c-0.436,0-0.812,0.342-0.846,0.786l-0.487,5.538h-2.658L36.341,0.837
		C36.333,0.376,35.957,0,35.487,0h-5.384c-0.47,0-0.846,0.376-0.855,0.846l-0.214,11.665h-3.991l-0.726-5.572
		c-0.06-0.427-0.419-0.752-0.846-0.752h-4.828c-0.231,0-0.453,0.103-0.615,0.265c-0.162,0.171-0.248,0.393-0.239,0.632l0.137,3.059
		h-3.453c-0.479,0-0.855,0.385-0.855,0.855v4.145h-2.906c-0.239,0-0.47,0.103-0.632,0.282c-0.162,0.179-0.239,0.427-0.214,0.667
		l4.88,44.857C14.934,62.692,16.395,64,18.139,64h27.714c1.752,0,3.213-1.308,3.401-3.051l4.88-44.857
		C54.159,15.853,54.083,15.605,53.92,15.425z M46.092,11.853h2.675v4.196c-0.41,2.965-1.581,5.666-3.299,7.913L46.092,11.853z
		 M41.409,7.896h3.145l-0.128,3.068l-0.778,15.015c-1.205,1.154-2.572,2.128-4.076,2.88L41.409,7.896z M36.581,14.22h2.555
		l-1.342,15.408c-0.872,0.316-1.778,0.581-2.7,0.752L36.581,14.22z M30.94,1.709h3.717L34.94,13.34l-1.581,17.263
		c-0.453,0.034-0.906,0.06-1.359,0.06c-0.179,0-0.35-0.017-0.53-0.026l-0.743-17.271L30.94,1.709z M29.06,14.22l0.692,16.28
		c-0.829-0.111-1.641-0.273-2.427-0.496l-2.06-15.784H29.06z M22.719,7.896l2.795,21.459c-1.88-0.786-3.589-1.897-5.068-3.273
		l-0.778-15.118L19.54,7.896H22.719z M15.327,11.853h2.675l0.632,12.255c-1.666-2.136-2.82-4.692-3.307-7.495V11.853z M47.553,60.77
		c-0.094,0.863-0.829,1.521-1.701,1.521H18.139c-0.872,0-1.598-0.658-1.701-1.521l-0.111-1.043h31.338L47.553,60.77z M47.853,58.018
		H16.147l-4.478-41.165h1.94c0.009,0,0.009,0.009,0.009,0.009v0.743h0.162c1.812,8.512,9.383,14.767,18.22,14.767
		c8.836,0,16.408-6.256,18.22-14.767h0.256v-0.752h1.854L47.853,58.018z M32,34.243c-8.025,0-14.306,3.547-14.306,8.067
		c0,4.521,6.281,8.059,14.306,8.059c8.016,0,14.306-3.538,14.306-8.059C46.306,37.79,40.016,34.243,32,34.243z M32,48.66
		c-6.828,0-12.597-2.906-12.597-6.35c0-3.444,5.768-6.358,12.597-6.358c6.828,0,12.597,2.914,12.597,6.358
		C44.597,45.755,38.828,48.66,32,48.66z M32,34.243c-8.025,0-14.306,3.547-14.306,8.067c0,4.521,6.281,8.059,14.306,8.059
		c8.016,0,14.306-3.538,14.306-8.059C46.306,37.79,40.016,34.243,32,34.243z M32,48.66c-6.828,0-12.597-2.906-12.597-6.35
		c0-3.444,5.768-6.358,12.597-6.358c6.828,0,12.597,2.914,12.597,6.358C44.597,45.755,38.828,48.66,32,48.66z M32,34.243
		c-8.025,0-14.306,3.547-14.306,8.067c0,4.521,6.281,8.059,14.306,8.059c8.016,0,14.306-3.538,14.306-8.059
		C46.306,37.79,40.016,34.243,32,34.243z M32,48.66c-6.828,0-12.597-2.906-12.597-6.35c0-3.444,5.768-6.358,12.597-6.358
		c6.828,0,12.597,2.914,12.597,6.358C44.597,45.755,38.828,48.66,32,48.66z M32,34.243c-8.025,0-14.306,3.547-14.306,8.067
		c0,4.521,6.281,8.059,14.306,8.059c8.016,0,14.306-3.538,14.306-8.059C46.306,37.79,40.016,34.243,32,34.243z M32,48.66
		c-6.828,0-12.597-2.906-12.597-6.35c0-3.444,5.768-6.358,12.597-6.358c6.828,0,12.597,2.914,12.597,6.358
		C44.597,45.755,38.828,48.66,32,48.66z M32,34.243c-8.025,0-14.306,3.547-14.306,8.067c0,4.521,6.281,8.059,14.306,8.059
		c8.016,0,14.306-3.538,14.306-8.059C46.306,37.79,40.016,34.243,32,34.243z M32,48.66c-6.828,0-12.597-2.906-12.597-6.35
		c0-3.444,5.768-6.358,12.597-6.358c6.828,0,12.597,2.914,12.597,6.358C44.597,45.755,38.828,48.66,32,48.66z M32,34.243
		c-8.025,0-14.306,3.547-14.306,8.067c0,4.521,6.281,8.059,14.306,8.059c8.016,0,14.306-3.538,14.306-8.059
		C46.306,37.79,40.016,34.243,32,34.243z M32,48.66c-6.828,0-12.597-2.906-12.597-6.35c0-3.444,5.768-6.358,12.597-6.358
		c6.828,0,12.597,2.914,12.597,6.358C44.597,45.755,38.828,48.66,32,48.66z M32,34.243c-8.025,0-14.306,3.547-14.306,8.067
		c0,4.521,6.281,8.059,14.306,8.059c8.016,0,14.306-3.538,14.306-8.059C46.306,37.79,40.016,34.243,32,34.243z M32,48.66
		c-6.828,0-12.597-2.906-12.597-6.35c0-3.444,5.768-6.358,12.597-6.358c6.828,0,12.597,2.914,12.597,6.358
		C44.597,45.755,38.828,48.66,32,48.66z M32,34.243c-8.025,0-14.306,3.547-14.306,8.067c0,4.521,6.281,8.059,14.306,8.059
		c8.016,0,14.306-3.538,14.306-8.059C46.306,37.79,40.016,34.243,32,34.243z M32,48.66c-6.828,0-12.597-2.906-12.597-6.35
		c0-3.444,5.768-6.358,12.597-6.358c6.828,0,12.597,2.914,12.597,6.358C44.597,45.755,38.828,48.66,32,48.66z M32,34.243
		c-8.025,0-14.306,3.547-14.306,8.067c0,4.521,6.281,8.059,14.306,8.059c8.016,0,14.306-3.538,14.306-8.059
		C46.306,37.79,40.016,34.243,32,34.243z M32,48.66c-6.828,0-12.597-2.906-12.597-6.35c0-3.444,5.768-6.358,12.597-6.358
		c6.828,0,12.597,2.914,12.597,6.358C44.597,45.755,38.828,48.66,32,48.66z"/>
	<path style="fill:#FCCB00;" d="M48.767,11.853v4.196c-0.41,2.965-1.581,5.666-3.299,7.913l0.624-12.109H48.767z M41.409,7.896
		l-1.837,20.963c1.504-0.752,2.871-1.726,4.076-2.88l0.778-15.015l0.128-3.068H41.409z M36.581,14.22l-1.487,16.16
		c0.923-0.171,1.829-0.436,2.7-0.752l1.342-15.408H36.581z M34.658,1.709H30.94l-0.214,11.657l0.743,17.271
		c0.179,0.009,0.35,0.026,0.53,0.026c0.453,0,0.906-0.026,1.359-0.06L34.94,13.34L34.658,1.709z M29.06,14.22h-3.794l2.06,15.784
		c0.786,0.222,1.598,0.385,2.427,0.496L29.06,14.22z M22.719,7.896H19.54l0.128,3.068l0.778,15.118
		c1.478,1.376,3.188,2.487,5.068,3.273L22.719,7.896z M18.002,11.853h-2.675v4.76c0.487,2.803,1.641,5.358,3.307,7.495
		L18.002,11.853z"/>
	<path style="fill:#E91B44;" d="M50.476,16.852v0.752H50.22C48.408,26.116,40.836,32.372,32,32.372
		c-8.836,0-16.408-6.256-18.22-14.767h-0.162v-0.743c0,0,0-0.009-0.009-0.009h-1.94l4.478,41.165h31.705l4.478-41.165H50.476z
		 M32,50.369c-8.025,0-14.306-3.538-14.306-8.059c0-4.521,6.281-8.067,14.306-8.067c8.016,0,14.306,3.547,14.306,8.067
		C46.306,46.831,40.016,50.369,32,50.369z"/>
</g>
<g id="Layer_1">
</g>
</svg>
