<?xml version="1.0" encoding="iso-8859-1"?>
<!-- Generator: Adobe Illustrator 24.0.3, SVG Export Plug-In . SVG Version: 6.00 Build 0)  -->
<svg version="1.1" xmlns="http://www.w3.org/2000/svg" xmlns:xlink="http://www.w3.org/1999/xlink" x="0px" y="0px"
	 viewBox="0 0 64 64" style="enable-background:new 0 0 64 64;" xml:space="preserve">
<g id="ice-cream">
	<polygon style="fill:#F8B145;" points="14.779,25.428 32.28,62.607 49.211,25.062 	"/>
	<path style="fill:#231F20;" d="M48.932,19.229h-0.008c0.304-0.507,0.482-1.09,0.482-1.715c0-1.757-1.343-3.194-3.058-3.371
		c-0.38-2.366-2.425-4.638-6.438-4.638h-0.245c-2.906,0-5.01,0-6.404-1.377c-3.168-3.126-0.684-6.632-0.575-6.776
		c0.211-0.296,0.22-0.684,0.017-0.989c-0.211-0.296-0.583-0.431-0.929-0.33c-0.634,0.186-15.056,4.444-14.667,14.211
		c-1.436,0.397-2.509,1.707-2.509,3.27c0,0.625,0.186,1.208,0.482,1.715c-0.938,0-1.791,0.38-2.408,0.997
		c-0.617,0.617-0.997,1.47-0.997,2.408c0,1.462,0.938,2.704,2.239,3.185l17.65,37.699C31.704,63.814,32,64,32.33,64h0.008
		c0.33,0,0.625-0.194,0.76-0.499l16.999-37.691c1.301-0.473,2.23-1.715,2.23-3.177C52.328,20.759,50.807,19.229,48.932,19.229z
		 M30.327,2.331c-0.642,1.952-0.642,4.647,1.74,7.004c1.893,1.859,4.41,1.85,7.596,1.859h0.245c2.991,0,4.351,1.428,4.715,2.915
		H18.786C18.617,7.646,26.576,3.785,30.327,2.331z M18,15.799h28.008c0.938,0,1.707,0.769,1.707,1.715
		c0,0.946-0.769,1.715-1.707,1.715H18c-0.473,0-0.904-0.194-1.208-0.507c-0.313-0.304-0.507-0.735-0.507-1.208
		C16.285,16.568,17.054,15.799,18,15.799z M15.88,26.031h4.191l0.515,0.38l-3.38,2.45L15.88,26.031z M17.569,29.638l3.743-2.704
		l4.436,3.211l-5.112,3.709l-1.656-1.2L17.569,29.638z M27.1,38.535l5.112-3.709l5.12,3.709l-5.112,3.701L27.1,38.535z
		 M36.968,46.722l-4.748,3.439l-4.757-3.439l4.757-3.447L36.968,46.722z M26.382,38.011l-5.027-3.641l5.12-3.701l5.019,3.641
		L26.382,38.011z M32.938,34.311l5.019-3.641l5.12,3.701l-5.027,3.641L32.938,34.311z M32.997,26.031h8.88l0.524,0.38l-4.444,3.219
		L32.997,26.031z M37.238,30.145l-5.027,3.641l-5.019-3.641l5.027-3.633L37.238,30.145z M26.474,29.63l-4.444-3.219l0.524-0.38h8.88
		L26.474,29.63z M19.817,34.446l-0.093-0.211l0.194,0.135L19.817,34.446z M20.18,35.223l0.456-0.33l5.019,3.641l-2.932,2.121
		L20.18,35.223z M23.095,41.433l3.287-2.383l5.112,3.709l-4.757,3.439l-2.138-1.546L23.095,41.433z M25.68,46.967l-0.346-0.744
		l0.684,0.498L25.68,46.967z M26.044,47.744l0.693-0.499l4.757,3.439l-3.042,2.205L26.044,47.744z M31.147,58.643l-0.355-0.769
		l0.701,0.515L31.147,58.643z M32.313,61.136l-0.803-1.715l0.71-0.515l0.828,0.608L32.313,61.136z M33.403,58.728l-0.465-0.338
		l0.912-0.667L33.403,58.728z M34.552,56.176l-2.332,1.69l-2.171-1.563l-1.234-2.636l3.405-2.459l3.447,2.492L34.552,56.176z
		 M36.022,52.915l-3.084-2.231l4.757-3.447l0.667,0.49L36.022,52.915z M38.717,46.942l-0.304-0.22l0.6-0.439L38.717,46.942z
		 M39.714,44.737l-2.019,1.462l-4.757-3.439l5.112-3.709l3.185,2.307L39.714,44.737z M41.59,40.571l-2.813-2.036l5.019-3.641
		l0.27,0.194L41.59,40.571z M45.02,32.967l-1.225,0.887l-5.112-3.709l4.436-3.211l3.481,2.518L45.02,32.967z M46.955,28.667
		l-3.109-2.256l0.515-0.38h3.785L46.955,28.667z M48.932,24.341H15.077c-0.946,0-1.715-0.769-1.715-1.707
		c0-0.946,0.769-1.715,1.715-1.715h33.855c0.946,0,1.707,0.769,1.707,1.715C50.638,23.572,49.878,24.341,48.932,24.341z"/>
	<path style="fill:#FCE6DA;" d="M44.623,14.109H18.786c-0.169-6.463,7.79-10.325,11.541-11.778c-0.642,1.952-0.642,4.647,1.74,7.004
		c1.893,1.859,4.41,1.85,7.596,1.859h0.245C42.899,11.194,44.259,12.622,44.623,14.109z M46.008,15.799H18
		c-0.946,0-1.715,0.769-1.715,1.715c0,0.473,0.194,0.904,0.507,1.208c0.304,0.313,0.735,0.507,1.208,0.507h28.008
		c0.938,0,1.707-0.769,1.707-1.715C47.715,16.568,46.946,15.799,46.008,15.799z M48.932,20.919H15.077
		c-0.946,0-1.715,0.769-1.715,1.715c0,0.938,0.769,1.707,1.715,1.707h33.855c0.946,0,1.707-0.769,1.707-1.707
		C50.638,21.688,49.878,20.919,48.932,20.919z"/>
</g>
<g id="Layer_1">
</g>
</svg>
