<?xml version="1.0" encoding="iso-8859-1"?>
<!-- Generator: Adobe Illustrator 24.0.3, SVG Export Plug-In . SVG Version: 6.00 Build 0)  -->
<svg version="1.1" xmlns="http://www.w3.org/2000/svg" xmlns:xlink="http://www.w3.org/1999/xlink" x="0px" y="0px"
	 viewBox="0 0 64 64" style="enable-background:new 0 0 64 64;" xml:space="preserve">
<g id="taco">
	<path style="fill:#231F20;" d="M8.973,40.213l-1.635,2.932l1.289,0.714l1.635-2.932L8.973,40.213z M16.339,40.213l-1.635,2.932
		l1.289,0.714l1.635-2.932L16.339,40.213z M16.339,32.847l-1.635,2.932l1.289,0.714l1.635-2.932L16.339,32.847z M23.705,40.213
		l-1.635,2.932l1.289,0.714l1.635-2.932L23.705,40.213z M24.442,32.847l-1.635,2.932l1.289,0.714l1.635-2.932L24.442,32.847z
		 M24.442,26.218l-1.635,2.932l1.289,0.714l1.635-2.932L24.442,26.218z M31.808,40.213l-1.635,2.932l1.289,0.714l1.635-2.932
		L31.808,40.213z M31.808,32.847l-1.635,2.932l1.289,0.714l1.635-2.932L31.808,32.847z M31.808,26.218l-1.635,2.932l1.289,0.714
		l1.635-2.932L31.808,26.218z M39.173,40.213l-1.635,2.932l1.289,0.714l1.635-2.932L39.173,40.213z M39.173,32.847l-1.635,2.932
		l1.289,0.714l1.635-2.932L39.173,32.847z M39.173,26.218l-1.635,2.932l1.289,0.714l1.635-2.932L39.173,26.218z M46.539,40.213
		l-1.635,2.932l1.289,0.714l1.635-2.932L46.539,40.213z M47.276,32.847l-1.635,2.932l1.289,0.714l1.635-2.932L47.276,32.847z
		 M53.905,40.213l-1.635,2.932l1.289,0.714l1.635-2.932L53.905,40.213z M53.905,40.213l-1.635,2.932l1.289,0.714l1.635-2.932
		L53.905,40.213z M47.276,32.847l-1.635,2.932l1.289,0.714l1.635-2.932L47.276,32.847z M46.539,40.213l-1.635,2.932l1.289,0.714
		l1.635-2.932L46.539,40.213z M39.173,26.218l-1.635,2.932l1.289,0.714l1.635-2.932L39.173,26.218z M39.173,32.847l-1.635,2.932
		l1.289,0.714l1.635-2.932L39.173,32.847z M39.173,40.213l-1.635,2.932l1.289,0.714l1.635-2.932L39.173,40.213z M31.808,26.218
		l-1.635,2.932l1.289,0.714l1.635-2.932L31.808,26.218z M31.808,32.847l-1.635,2.932l1.289,0.714l1.635-2.932L31.808,32.847z
		 M31.808,40.213l-1.635,2.932l1.289,0.714l1.635-2.932L31.808,40.213z M24.442,26.218l-1.635,2.932l1.289,0.714l1.635-2.932
		L24.442,26.218z M24.442,32.847l-1.635,2.932l1.289,0.714l1.635-2.932L24.442,32.847z M23.705,40.213l-1.635,2.932l1.289,0.714
		l1.635-2.932L23.705,40.213z M16.339,32.847l-1.635,2.932l1.289,0.714l1.635-2.932L16.339,32.847z M16.339,40.213l-1.635,2.932
		l1.289,0.714l1.635-2.932L16.339,40.213z M8.973,40.213l-1.635,2.932l1.289,0.714l1.635-2.932L8.973,40.213z M8.973,40.213
		l-1.635,2.932l1.289,0.714l1.635-2.932L8.973,40.213z M16.339,40.213l-1.635,2.932l1.289,0.714l1.635-2.932L16.339,40.213z
		 M16.339,32.847l-1.635,2.932l1.289,0.714l1.635-2.932L16.339,32.847z M23.705,40.213l-1.635,2.932l1.289,0.714l1.635-2.932
		L23.705,40.213z M24.442,32.847l-1.635,2.932l1.289,0.714l1.635-2.932L24.442,32.847z M24.442,26.218l-1.635,2.932l1.289,0.714
		l1.635-2.932L24.442,26.218z M31.808,40.213l-1.635,2.932l1.289,0.714l1.635-2.932L31.808,40.213z M31.808,32.847l-1.635,2.932
		l1.289,0.714l1.635-2.932L31.808,32.847z M31.808,26.218l-1.635,2.932l1.289,0.714l1.635-2.932L31.808,26.218z M39.173,40.213
		l-1.635,2.932l1.289,0.714l1.635-2.932L39.173,40.213z M39.173,32.847l-1.635,2.932l1.289,0.714l1.635-2.932L39.173,32.847z
		 M39.173,26.218l-1.635,2.932l1.289,0.714l1.635-2.932L39.173,26.218z M46.539,40.213l-1.635,2.932l1.289,0.714l1.635-2.932
		L46.539,40.213z M47.276,32.847l-1.635,2.932l1.289,0.714l1.635-2.932L47.276,32.847z M53.905,40.213l-1.635,2.932l1.289,0.714
		l1.635-2.932L53.905,40.213z M53.905,40.213l-1.635,2.932l1.289,0.714l1.635-2.932L53.905,40.213z M47.276,32.847l-1.635,2.932
		l1.289,0.714l1.635-2.932L47.276,32.847z M46.539,40.213l-1.635,2.932l1.289,0.714l1.635-2.932L46.539,40.213z M39.173,26.218
		l-1.635,2.932l1.289,0.714l1.635-2.932L39.173,26.218z M39.173,32.847l-1.635,2.932l1.289,0.714l1.635-2.932L39.173,32.847z
		 M39.173,40.213l-1.635,2.932l1.289,0.714l1.635-2.932L39.173,40.213z M31.808,26.218l-1.635,2.932l1.289,0.714l1.635-2.932
		L31.808,26.218z M31.808,32.847l-1.635,2.932l1.289,0.714l1.635-2.932L31.808,32.847z M31.808,40.213l-1.635,2.932l1.289,0.714
		l1.635-2.932L31.808,40.213z M24.442,26.218l-1.635,2.932l1.289,0.714l1.635-2.932L24.442,26.218z M24.442,32.847l-1.635,2.932
		l1.289,0.714l1.635-2.932L24.442,32.847z M23.705,40.213l-1.635,2.932l1.289,0.714l1.635-2.932L23.705,40.213z M16.339,32.847
		l-1.635,2.932l1.289,0.714l1.635-2.932L16.339,32.847z M16.339,40.213l-1.635,2.932l1.289,0.714l1.635-2.932L16.339,40.213z
		 M8.973,40.213l-1.635,2.932l1.289,0.714l1.635-2.932L8.973,40.213z M8.973,40.213l-1.635,2.932l1.289,0.714l1.635-2.932
		L8.973,40.213z M16.339,40.213l-1.635,2.932l1.289,0.714l1.635-2.932L16.339,40.213z M16.339,32.847l-1.635,2.932l1.289,0.714
		l1.635-2.932L16.339,32.847z M23.705,40.213l-1.635,2.932l1.289,0.714l1.635-2.932L23.705,40.213z M24.442,32.847l-1.635,2.932
		l1.289,0.714l1.635-2.932L24.442,32.847z M24.442,26.218l-1.635,2.932l1.289,0.714l1.635-2.932L24.442,26.218z M31.808,40.213
		l-1.635,2.932l1.289,0.714l1.635-2.932L31.808,40.213z M31.808,32.847l-1.635,2.932l1.289,0.714l1.635-2.932L31.808,32.847z
		 M31.808,26.218l-1.635,2.932l1.289,0.714l1.635-2.932L31.808,26.218z M39.173,40.213l-1.635,2.932l1.289,0.714l1.635-2.932
		L39.173,40.213z M39.173,32.847l-1.635,2.932l1.289,0.714l1.635-2.932L39.173,32.847z M39.173,26.218l-1.635,2.932l1.289,0.714
		l1.635-2.932L39.173,26.218z M46.539,40.213l-1.635,2.932l1.289,0.714l1.635-2.932L46.539,40.213z M47.276,32.847l-1.635,2.932
		l1.289,0.714l1.635-2.932L47.276,32.847z M53.905,40.213l-1.635,2.932l1.289,0.714l1.635-2.932L53.905,40.213z M53.905,40.213
		l-1.635,2.932l1.289,0.714l1.635-2.932L53.905,40.213z M47.276,32.847l-1.635,2.932l1.289,0.714l1.635-2.932L47.276,32.847z
		 M46.539,40.213l-1.635,2.932l1.289,0.714l1.635-2.932L46.539,40.213z M39.173,26.218l-1.635,2.932l1.289,0.714l1.635-2.932
		L39.173,26.218z M39.173,32.847l-1.635,2.932l1.289,0.714l1.635-2.932L39.173,32.847z M39.173,40.213l-1.635,2.932l1.289,0.714
		l1.635-2.932L39.173,40.213z M31.808,26.218l-1.635,2.932l1.289,0.714l1.635-2.932L31.808,26.218z M31.808,32.847l-1.635,2.932
		l1.289,0.714l1.635-2.932L31.808,32.847z M31.808,40.213l-1.635,2.932l1.289,0.714l1.635-2.932L31.808,40.213z M24.442,26.218
		l-1.635,2.932l1.289,0.714l1.635-2.932L24.442,26.218z M24.442,32.847l-1.635,2.932l1.289,0.714l1.635-2.932L24.442,32.847z
		 M23.705,40.213l-1.635,2.932l1.289,0.714l1.635-2.932L23.705,40.213z M16.339,32.847l-1.635,2.932l1.289,0.714l1.635-2.932
		L16.339,32.847z M16.339,40.213l-1.635,2.932l1.289,0.714l1.635-2.932L16.339,40.213z M8.973,40.213l-1.635,2.932l1.289,0.714
		l1.635-2.932L8.973,40.213z M8.973,40.213l-1.635,2.932l1.289,0.714l1.635-2.932L8.973,40.213z M16.339,40.213l-1.635,2.932
		l1.289,0.714l1.635-2.932L16.339,40.213z M16.339,32.847l-1.635,2.932l1.289,0.714l1.635-2.932L16.339,32.847z M23.705,40.213
		l-1.635,2.932l1.289,0.714l1.635-2.932L23.705,40.213z M24.442,32.847l-1.635,2.932l1.289,0.714l1.635-2.932L24.442,32.847z
		 M24.442,26.218l-1.635,2.932l1.289,0.714l1.635-2.932L24.442,26.218z M31.808,40.213l-1.635,2.932l1.289,0.714l1.635-2.932
		L31.808,40.213z M31.808,32.847l-1.635,2.932l1.289,0.714l1.635-2.932L31.808,32.847z M31.808,26.218l-1.635,2.932l1.289,0.714
		l1.635-2.932L31.808,26.218z M39.173,40.213l-1.635,2.932l1.289,0.714l1.635-2.932L39.173,40.213z M39.173,32.847l-1.635,2.932
		l1.289,0.714l1.635-2.932L39.173,32.847z M39.173,26.218l-1.635,2.932l1.289,0.714l1.635-2.932L39.173,26.218z M46.539,40.213
		l-1.635,2.932l1.289,0.714l1.635-2.932L46.539,40.213z M47.276,32.847l-1.635,2.932l1.289,0.714l1.635-2.932L47.276,32.847z
		 M53.905,40.213l-1.635,2.932l1.289,0.714l1.635-2.932L53.905,40.213z M53.905,40.213l-1.635,2.932l1.289,0.714l1.635-2.932
		L53.905,40.213z M47.276,32.847l-1.635,2.932l1.289,0.714l1.635-2.932L47.276,32.847z M46.539,40.213l-1.635,2.932l1.289,0.714
		l1.635-2.932L46.539,40.213z M39.173,26.218l-1.635,2.932l1.289,0.714l1.635-2.932L39.173,26.218z M39.173,32.847l-1.635,2.932
		l1.289,0.714l1.635-2.932L39.173,32.847z M39.173,40.213l-1.635,2.932l1.289,0.714l1.635-2.932L39.173,40.213z M31.808,26.218
		l-1.635,2.932l1.289,0.714l1.635-2.932L31.808,26.218z M31.808,32.847l-1.635,2.932l1.289,0.714l1.635-2.932L31.808,32.847z
		 M31.808,40.213l-1.635,2.932l1.289,0.714l1.635-2.932L31.808,40.213z M24.442,26.218l-1.635,2.932l1.289,0.714l1.635-2.932
		L24.442,26.218z M24.442,32.847l-1.635,2.932l1.289,0.714l1.635-2.932L24.442,32.847z M23.705,40.213l-1.635,2.932l1.289,0.714
		l1.635-2.932L23.705,40.213z M16.339,32.847l-1.635,2.932l1.289,0.714l1.635-2.932L16.339,32.847z M16.339,40.213l-1.635,2.932
		l1.289,0.714l1.635-2.932L16.339,40.213z M8.973,40.213l-1.635,2.932l1.289,0.714l1.635-2.932L8.973,40.213z M8.973,40.213
		l-1.635,2.932l1.289,0.714l1.635-2.932L8.973,40.213z M16.339,40.213l-1.635,2.932l1.289,0.714l1.635-2.932L16.339,40.213z
		 M16.339,32.847l-1.635,2.932l1.289,0.714l1.635-2.932L16.339,32.847z M23.705,40.213l-1.635,2.932l1.289,0.714l1.635-2.932
		L23.705,40.213z M24.442,32.847l-1.635,2.932l1.289,0.714l1.635-2.932L24.442,32.847z M24.442,26.218l-1.635,2.932l1.289,0.714
		l1.635-2.932L24.442,26.218z M31.808,40.213l-1.635,2.932l1.289,0.714l1.635-2.932L31.808,40.213z M31.808,32.847l-1.635,2.932
		l1.289,0.714l1.635-2.932L31.808,32.847z M31.808,26.218l-1.635,2.932l1.289,0.714l1.635-2.932L31.808,26.218z M39.173,40.213
		l-1.635,2.932l1.289,0.714l1.635-2.932L39.173,40.213z M39.173,32.847l-1.635,2.932l1.289,0.714l1.635-2.932L39.173,32.847z
		 M39.173,26.218l-1.635,2.932l1.289,0.714l1.635-2.932L39.173,26.218z M46.539,40.213l-1.635,2.932l1.289,0.714l1.635-2.932
		L46.539,40.213z M47.276,32.847l-1.635,2.932l1.289,0.714l1.635-2.932L47.276,32.847z M53.905,40.213l-1.635,2.932l1.289,0.714
		l1.635-2.932L53.905,40.213z M53.905,40.213l-1.635,2.932l1.289,0.714l1.635-2.932L53.905,40.213z M45.641,35.779l1.289,0.714
		l1.635-2.932l-1.289-0.715L45.641,35.779z M44.904,43.145l1.289,0.714l1.635-2.932l-1.289-0.715L44.904,43.145z M37.538,29.149
		l1.289,0.714l1.635-2.932l-1.289-0.715L37.538,29.149z M37.538,35.779l1.289,0.714l1.635-2.932l-1.289-0.715L37.538,35.779z
		 M37.538,43.145l1.289,0.714l1.635-2.932l-1.289-0.715L37.538,43.145z M30.172,29.149l1.289,0.714l1.635-2.932l-1.289-0.715
		L30.172,29.149z M30.172,35.779l1.289,0.714l1.635-2.932l-1.289-0.715L30.172,35.779z M30.172,43.145l1.289,0.714l1.635-2.932
		l-1.289-0.715L30.172,43.145z M22.806,29.149l1.289,0.714l1.635-2.932l-1.289-0.715L22.806,29.149z M22.806,35.779l1.289,0.714
		l1.635-2.932l-1.289-0.715L22.806,35.779z M22.07,43.145l1.289,0.714l1.635-2.932l-1.289-0.715L22.07,43.145z M14.704,35.779
		l1.289,0.714l1.635-2.932l-1.289-0.715L14.704,35.779z M14.704,43.145l1.289,0.714l1.635-2.932l-1.289-0.715L14.704,43.145z
		 M7.338,43.145l1.289,0.714l1.635-2.932l-1.289-0.715L7.338,43.145z M63.82,40.404c-0.324-1.326-1.068-2.438-2.048-3.248
		c0.28-0.965,0.471-1.93,0.118-2.799c-0.464-1.12-1.775-1.591-3.035-2.04c-0.479-0.169-0.98-0.361-1.385-0.567
		c0.589-2.49-0.162-5.208-2.202-7.027c-1.576-1.407-3.602-1.981-5.554-1.768c-0.125-0.39-0.236-0.825-0.331-1.245
		c-0.309-1.304-0.626-2.652-1.687-3.241c-1.039-0.575-2.35-0.133-3.609,0.295c-0.862,0.287-1.841,0.626-2.372,0.435
		c-0.501-0.177-1.053-1.031-1.539-1.783c-0.722-1.142-1.473-2.313-2.681-2.512c-0.604-0.103-1.186,0.081-1.746,0.383
		c-1.149-0.56-2.438-0.877-3.801-0.877c-1.296,0-2.527,0.295-3.631,0.81c-0.523-0.265-1.061-0.412-1.621-0.317
		c-1.201,0.199-1.959,1.377-2.681,2.512c-0.486,0.751-1.039,1.606-1.539,1.783c-0.53,0.184-1.503-0.147-2.364-0.435
		c-1.267-0.427-2.571-0.869-3.617-0.295c-1.061,0.589-1.377,1.937-1.687,3.241c-0.103,0.427-0.206,0.869-0.339,1.26
		c-2.004-0.265-4.11,0.302-5.738,1.753c-2.062,1.834-2.806,4.604-2.18,7.108c-0.376,0.177-0.803,0.339-1.215,0.486
		c-1.26,0.449-2.571,0.921-3.035,2.04c-0.346,0.84-0.228,1.797-0.022,2.762c-1.009,0.81-1.76,1.937-2.099,3.285
		c-0.663,2.696,0.575,5.407,2.851,6.755c0,0.029-0.007,0.059-0.007,0.088c-0.037,0.611,0.184,1.208,0.604,1.65
		c0.42,0.449,0.994,0.692,1.606,0.692h53.432c0.611,0,1.186-0.243,1.606-0.692c0.42-0.442,0.641-1.039,0.604-1.65v-0.029
		C63.208,45.892,64.498,43.137,63.82,40.404z M56.977,33.149c0.442,0.206,0.906,0.383,1.377,0.552
		c0.921,0.331,1.959,0.707,2.173,1.223c0.147,0.354,0.081,0.854-0.059,1.407c-0.825-0.39-1.738-0.597-2.681-0.589
		c-0.346-0.685-0.722-1.348-1.12-2.004C56.778,33.547,56.889,33.348,56.977,33.149z M54.288,25.82
		c1.878,1.672,2.379,4.309,1.451,6.497c-2.04-2.924-4.604-5.451-7.55-7.447C50.171,23.993,52.572,24.288,54.288,25.82z
		 M41.229,20.59c1.009,0.354,2.188-0.044,3.329-0.435c0.913-0.309,1.952-0.656,2.423-0.398c0.486,0.273,0.744,1.348,0.965,2.291
		c0.096,0.412,0.206,0.818,0.331,1.208c-0.53,0.169-1.039,0.405-1.517,0.7c-1.981-1.179-4.118-2.136-6.364-2.814
		c-0.133-0.575-0.324-1.127-0.56-1.65C40.234,19.986,40.683,20.399,41.229,20.59z M38.002,16.885
		c-0.125-0.118-0.258-0.243-0.39-0.354C37.744,16.62,37.87,16.745,38.002,16.885z M31.948,15.883c3.131,0,5.79,2.011,6.784,4.803
		c-2.18-0.523-4.449-0.803-6.784-0.803s-4.604,0.28-6.777,0.803C26.158,17.894,28.817,15.883,31.948,15.883z M16.243,22.049
		c0.221-0.943,0.479-2.018,0.965-2.291c0.479-0.265,1.51,0.088,2.423,0.398c1.142,0.39,2.328,0.788,3.329,0.435
		c0.324-0.111,0.611-0.309,0.877-0.545c-0.133,0.354-0.25,0.715-0.339,1.09c-2.225,0.678-4.339,1.62-6.305,2.792
		c-0.42-0.25-0.854-0.449-1.296-0.611C16.022,22.903,16.14,22.483,16.243,22.049z M9.71,25.82c1.702-1.517,4.066-1.819,6.04-0.98
		c-2.932,1.981-5.488,4.486-7.528,7.381C7.353,30.048,7.861,27.47,9.71,25.82z M3.662,34.924c0.214-0.516,1.26-0.891,2.173-1.223
		c0.412-0.147,0.818-0.309,1.208-0.486c0.074,0.147,0.155,0.295,0.236,0.442c-0.42,0.678-0.81,1.377-1.171,2.092
		c-0.869,0-1.716,0.192-2.49,0.538C3.537,35.757,3.515,35.278,3.662,34.924z M3.176,45.472c-1.333-1.105-2.011-2.917-1.562-4.714
		c0.457-1.864,1.989-3.182,3.771-3.477C4.274,39.837,3.515,42.585,3.176,45.472z M59.201,47.888
		c-0.14,0.147-0.331,0.228-0.538,0.228H5.231c-0.206,0-0.398-0.081-0.538-0.228c-0.14-0.155-0.214-0.346-0.206-0.56
		c0.803-14.562,12.861-25.972,27.46-25.972s26.665,11.41,27.46,25.972C59.415,47.542,59.341,47.734,59.201,47.888z M60.726,45.546
		c-0.331-2.917-1.098-5.701-2.225-8.287c1.834,0.258,3.418,1.598,3.889,3.499C62.84,42.6,62.133,44.448,60.726,45.546z
		 M55.194,40.927l-1.289-0.715l-1.635,2.932l1.289,0.714L55.194,40.927z M45.641,35.779l1.289,0.714l1.635-2.932l-1.289-0.715
		L45.641,35.779z M44.904,43.145l1.289,0.714l1.635-2.932l-1.289-0.715L44.904,43.145z M37.538,29.149l1.289,0.714l1.635-2.932
		l-1.289-0.715L37.538,29.149z M37.538,35.779l1.289,0.714l1.635-2.932l-1.289-0.715L37.538,35.779z M37.538,43.145l1.289,0.714
		l1.635-2.932l-1.289-0.715L37.538,43.145z M30.172,29.149l1.289,0.714l1.635-2.932l-1.289-0.715L30.172,29.149z M30.172,35.779
		l1.289,0.714l1.635-2.932l-1.289-0.715L30.172,35.779z M30.172,43.145l1.289,0.714l1.635-2.932l-1.289-0.715L30.172,43.145z
		 M22.806,29.149l1.289,0.714l1.635-2.932l-1.289-0.715L22.806,29.149z M22.806,35.779l1.289,0.714l1.635-2.932l-1.289-0.715
		L22.806,35.779z M22.07,43.145l1.289,0.714l1.635-2.932l-1.289-0.715L22.07,43.145z M14.704,35.779l1.289,0.714l1.635-2.932
		l-1.289-0.715L14.704,35.779z M14.704,43.145l1.289,0.714l1.635-2.932l-1.289-0.715L14.704,43.145z M7.338,43.145l1.289,0.714
		l1.635-2.932l-1.289-0.715L7.338,43.145z M8.973,40.213l-1.635,2.932l1.289,0.714l1.635-2.932L8.973,40.213z M16.339,40.213
		l-1.635,2.932l1.289,0.714l1.635-2.932L16.339,40.213z M16.339,32.847l-1.635,2.932l1.289,0.714l1.635-2.932L16.339,32.847z
		 M23.705,40.213l-1.635,2.932l1.289,0.714l1.635-2.932L23.705,40.213z M24.442,32.847l-1.635,2.932l1.289,0.714l1.635-2.932
		L24.442,32.847z M24.442,26.218l-1.635,2.932l1.289,0.714l1.635-2.932L24.442,26.218z M31.808,40.213l-1.635,2.932l1.289,0.714
		l1.635-2.932L31.808,40.213z M31.808,32.847l-1.635,2.932l1.289,0.714l1.635-2.932L31.808,32.847z M31.808,26.218l-1.635,2.932
		l1.289,0.714l1.635-2.932L31.808,26.218z M39.173,40.213l-1.635,2.932l1.289,0.714l1.635-2.932L39.173,40.213z M39.173,32.847
		l-1.635,2.932l1.289,0.714l1.635-2.932L39.173,32.847z M39.173,26.218l-1.635,2.932l1.289,0.714l1.635-2.932L39.173,26.218z
		 M46.539,40.213l-1.635,2.932l1.289,0.714l1.635-2.932L46.539,40.213z M47.276,32.847l-1.635,2.932l1.289,0.714l1.635-2.932
		L47.276,32.847z M53.905,40.213l-1.635,2.932l1.289,0.714l1.635-2.932L53.905,40.213z M53.905,40.213l-1.635,2.932l1.289,0.714
		l1.635-2.932L53.905,40.213z M47.276,32.847l-1.635,2.932l1.289,0.714l1.635-2.932L47.276,32.847z M46.539,40.213l-1.635,2.932
		l1.289,0.714l1.635-2.932L46.539,40.213z M39.173,26.218l-1.635,2.932l1.289,0.714l1.635-2.932L39.173,26.218z M39.173,32.847
		l-1.635,2.932l1.289,0.714l1.635-2.932L39.173,32.847z M39.173,40.213l-1.635,2.932l1.289,0.714l1.635-2.932L39.173,40.213z
		 M31.808,26.218l-1.635,2.932l1.289,0.714l1.635-2.932L31.808,26.218z M31.808,32.847l-1.635,2.932l1.289,0.714l1.635-2.932
		L31.808,32.847z M31.808,40.213l-1.635,2.932l1.289,0.714l1.635-2.932L31.808,40.213z M24.442,26.218l-1.635,2.932l1.289,0.714
		l1.635-2.932L24.442,26.218z M24.442,32.847l-1.635,2.932l1.289,0.714l1.635-2.932L24.442,32.847z M23.705,40.213l-1.635,2.932
		l1.289,0.714l1.635-2.932L23.705,40.213z M16.339,32.847l-1.635,2.932l1.289,0.714l1.635-2.932L16.339,32.847z M16.339,40.213
		l-1.635,2.932l1.289,0.714l1.635-2.932L16.339,40.213z M8.973,40.213l-1.635,2.932l1.289,0.714l1.635-2.932L8.973,40.213z
		 M8.973,40.213l-1.635,2.932l1.289,0.714l1.635-2.932L8.973,40.213z M16.339,40.213l-1.635,2.932l1.289,0.714l1.635-2.932
		L16.339,40.213z M16.339,32.847l-1.635,2.932l1.289,0.714l1.635-2.932L16.339,32.847z M23.705,40.213l-1.635,2.932l1.289,0.714
		l1.635-2.932L23.705,40.213z M24.442,32.847l-1.635,2.932l1.289,0.714l1.635-2.932L24.442,32.847z M24.442,26.218l-1.635,2.932
		l1.289,0.714l1.635-2.932L24.442,26.218z M31.808,40.213l-1.635,2.932l1.289,0.714l1.635-2.932L31.808,40.213z M31.808,32.847
		l-1.635,2.932l1.289,0.714l1.635-2.932L31.808,32.847z M31.808,26.218l-1.635,2.932l1.289,0.714l1.635-2.932L31.808,26.218z
		 M39.173,40.213l-1.635,2.932l1.289,0.714l1.635-2.932L39.173,40.213z M39.173,32.847l-1.635,2.932l1.289,0.714l1.635-2.932
		L39.173,32.847z M39.173,26.218l-1.635,2.932l1.289,0.714l1.635-2.932L39.173,26.218z M46.539,40.213l-1.635,2.932l1.289,0.714
		l1.635-2.932L46.539,40.213z M47.276,32.847l-1.635,2.932l1.289,0.714l1.635-2.932L47.276,32.847z M53.905,40.213l-1.635,2.932
		l1.289,0.714l1.635-2.932L53.905,40.213z M53.905,40.213l-1.635,2.932l1.289,0.714l1.635-2.932L53.905,40.213z M47.276,32.847
		l-1.635,2.932l1.289,0.714l1.635-2.932L47.276,32.847z M46.539,40.213l-1.635,2.932l1.289,0.714l1.635-2.932L46.539,40.213z
		 M39.173,26.218l-1.635,2.932l1.289,0.714l1.635-2.932L39.173,26.218z M39.173,32.847l-1.635,2.932l1.289,0.714l1.635-2.932
		L39.173,32.847z M39.173,40.213l-1.635,2.932l1.289,0.714l1.635-2.932L39.173,40.213z M31.808,26.218l-1.635,2.932l1.289,0.714
		l1.635-2.932L31.808,26.218z M31.808,32.847l-1.635,2.932l1.289,0.714l1.635-2.932L31.808,32.847z M31.808,40.213l-1.635,2.932
		l1.289,0.714l1.635-2.932L31.808,40.213z M24.442,26.218l-1.635,2.932l1.289,0.714l1.635-2.932L24.442,26.218z M24.442,32.847
		l-1.635,2.932l1.289,0.714l1.635-2.932L24.442,32.847z M23.705,40.213l-1.635,2.932l1.289,0.714l1.635-2.932L23.705,40.213z
		 M16.339,32.847l-1.635,2.932l1.289,0.714l1.635-2.932L16.339,32.847z M16.339,40.213l-1.635,2.932l1.289,0.714l1.635-2.932
		L16.339,40.213z M8.973,40.213l-1.635,2.932l1.289,0.714l1.635-2.932L8.973,40.213z M8.973,40.213l-1.635,2.932l1.289,0.714
		l1.635-2.932L8.973,40.213z M16.339,40.213l-1.635,2.932l1.289,0.714l1.635-2.932L16.339,40.213z M16.339,32.847l-1.635,2.932
		l1.289,0.714l1.635-2.932L16.339,32.847z M23.705,40.213l-1.635,2.932l1.289,0.714l1.635-2.932L23.705,40.213z M24.442,32.847
		l-1.635,2.932l1.289,0.714l1.635-2.932L24.442,32.847z M24.442,26.218l-1.635,2.932l1.289,0.714l1.635-2.932L24.442,26.218z
		 M31.808,40.213l-1.635,2.932l1.289,0.714l1.635-2.932L31.808,40.213z M31.808,32.847l-1.635,2.932l1.289,0.714l1.635-2.932
		L31.808,32.847z M31.808,26.218l-1.635,2.932l1.289,0.714l1.635-2.932L31.808,26.218z M39.173,40.213l-1.635,2.932l1.289,0.714
		l1.635-2.932L39.173,40.213z M39.173,32.847l-1.635,2.932l1.289,0.714l1.635-2.932L39.173,32.847z M39.173,26.218l-1.635,2.932
		l1.289,0.714l1.635-2.932L39.173,26.218z M46.539,40.213l-1.635,2.932l1.289,0.714l1.635-2.932L46.539,40.213z M47.276,32.847
		l-1.635,2.932l1.289,0.714l1.635-2.932L47.276,32.847z M53.905,40.213l-1.635,2.932l1.289,0.714l1.635-2.932L53.905,40.213z
		 M53.905,40.213l-1.635,2.932l1.289,0.714l1.635-2.932L53.905,40.213z M47.276,32.847l-1.635,2.932l1.289,0.714l1.635-2.932
		L47.276,32.847z M46.539,40.213l-1.635,2.932l1.289,0.714l1.635-2.932L46.539,40.213z M39.173,26.218l-1.635,2.932l1.289,0.714
		l1.635-2.932L39.173,26.218z M39.173,32.847l-1.635,2.932l1.289,0.714l1.635-2.932L39.173,32.847z M39.173,40.213l-1.635,2.932
		l1.289,0.714l1.635-2.932L39.173,40.213z M31.808,26.218l-1.635,2.932l1.289,0.714l1.635-2.932L31.808,26.218z M31.808,32.847
		l-1.635,2.932l1.289,0.714l1.635-2.932L31.808,32.847z M31.808,40.213l-1.635,2.932l1.289,0.714l1.635-2.932L31.808,40.213z
		 M24.442,26.218l-1.635,2.932l1.289,0.714l1.635-2.932L24.442,26.218z M24.442,32.847l-1.635,2.932l1.289,0.714l1.635-2.932
		L24.442,32.847z M23.705,40.213l-1.635,2.932l1.289,0.714l1.635-2.932L23.705,40.213z M16.339,32.847l-1.635,2.932l1.289,0.714
		l1.635-2.932L16.339,32.847z M16.339,40.213l-1.635,2.932l1.289,0.714l1.635-2.932L16.339,40.213z M8.973,40.213l-1.635,2.932
		l1.289,0.714l1.635-2.932L8.973,40.213z M8.973,40.213l-1.635,2.932l1.289,0.714l1.635-2.932L8.973,40.213z M16.339,40.213
		l-1.635,2.932l1.289,0.714l1.635-2.932L16.339,40.213z M16.339,32.847l-1.635,2.932l1.289,0.714l1.635-2.932L16.339,32.847z
		 M23.705,40.213l-1.635,2.932l1.289,0.714l1.635-2.932L23.705,40.213z M24.442,32.847l-1.635,2.932l1.289,0.714l1.635-2.932
		L24.442,32.847z M24.442,26.218l-1.635,2.932l1.289,0.714l1.635-2.932L24.442,26.218z M31.808,40.213l-1.635,2.932l1.289,0.714
		l1.635-2.932L31.808,40.213z M31.808,32.847l-1.635,2.932l1.289,0.714l1.635-2.932L31.808,32.847z M31.808,26.218l-1.635,2.932
		l1.289,0.714l1.635-2.932L31.808,26.218z M39.173,40.213l-1.635,2.932l1.289,0.714l1.635-2.932L39.173,40.213z M39.173,32.847
		l-1.635,2.932l1.289,0.714l1.635-2.932L39.173,32.847z M39.173,26.218l-1.635,2.932l1.289,0.714l1.635-2.932L39.173,26.218z
		 M46.539,40.213l-1.635,2.932l1.289,0.714l1.635-2.932L46.539,40.213z M47.276,32.847l-1.635,2.932l1.289,0.714l1.635-2.932
		L47.276,32.847z M53.905,40.213l-1.635,2.932l1.289,0.714l1.635-2.932L53.905,40.213z M53.905,40.213l-1.635,2.932l1.289,0.714
		l1.635-2.932L53.905,40.213z M47.276,32.847l-1.635,2.932l1.289,0.714l1.635-2.932L47.276,32.847z M46.539,40.213l-1.635,2.932
		l1.289,0.714l1.635-2.932L46.539,40.213z M39.173,26.218l-1.635,2.932l1.289,0.714l1.635-2.932L39.173,26.218z M39.173,32.847
		l-1.635,2.932l1.289,0.714l1.635-2.932L39.173,32.847z M39.173,40.213l-1.635,2.932l1.289,0.714l1.635-2.932L39.173,40.213z
		 M31.808,26.218l-1.635,2.932l1.289,0.714l1.635-2.932L31.808,26.218z M31.808,32.847l-1.635,2.932l1.289,0.714l1.635-2.932
		L31.808,32.847z M31.808,40.213l-1.635,2.932l1.289,0.714l1.635-2.932L31.808,40.213z M24.442,26.218l-1.635,2.932l1.289,0.714
		l1.635-2.932L24.442,26.218z M24.442,32.847l-1.635,2.932l1.289,0.714l1.635-2.932L24.442,32.847z M23.705,40.213l-1.635,2.932
		l1.289,0.714l1.635-2.932L23.705,40.213z M16.339,32.847l-1.635,2.932l1.289,0.714l1.635-2.932L16.339,32.847z M16.339,40.213
		l-1.635,2.932l1.289,0.714l1.635-2.932L16.339,40.213z M8.973,40.213l-1.635,2.932l1.289,0.714l1.635-2.932L8.973,40.213z
		 M8.973,40.213l-1.635,2.932l1.289,0.714l1.635-2.932L8.973,40.213z M16.339,40.213l-1.635,2.932l1.289,0.714l1.635-2.932
		L16.339,40.213z M16.339,32.847l-1.635,2.932l1.289,0.714l1.635-2.932L16.339,32.847z M23.705,40.213l-1.635,2.932l1.289,0.714
		l1.635-2.932L23.705,40.213z M24.442,32.847l-1.635,2.932l1.289,0.714l1.635-2.932L24.442,32.847z M24.442,26.218l-1.635,2.932
		l1.289,0.714l1.635-2.932L24.442,26.218z M31.808,40.213l-1.635,2.932l1.289,0.714l1.635-2.932L31.808,40.213z M31.808,32.847
		l-1.635,2.932l1.289,0.714l1.635-2.932L31.808,32.847z M31.808,26.218l-1.635,2.932l1.289,0.714l1.635-2.932L31.808,26.218z
		 M39.173,40.213l-1.635,2.932l1.289,0.714l1.635-2.932L39.173,40.213z M39.173,32.847l-1.635,2.932l1.289,0.714l1.635-2.932
		L39.173,32.847z M39.173,26.218l-1.635,2.932l1.289,0.714l1.635-2.932L39.173,26.218z M46.539,40.213l-1.635,2.932l1.289,0.714
		l1.635-2.932L46.539,40.213z M47.276,32.847l-1.635,2.932l1.289,0.714l1.635-2.932L47.276,32.847z M53.905,40.213l-1.635,2.932
		l1.289,0.714l1.635-2.932L53.905,40.213z M16.339,40.213l-1.635,2.932l1.289,0.714l1.635-2.932L16.339,40.213z M16.339,32.847
		l-1.635,2.932l1.289,0.714l1.635-2.932L16.339,32.847z M8.973,40.213l-1.635,2.932l1.289,0.714l1.635-2.932L8.973,40.213z
		 M31.808,32.847l-1.635,2.932l1.289,0.714l1.635-2.932L31.808,32.847z M46.539,40.213l-1.635,2.932l1.289,0.714l1.635-2.932
		L46.539,40.213z M39.173,26.218l-1.635,2.932l1.289,0.714l1.635-2.932L39.173,26.218z M53.905,40.213l-1.635,2.932l1.289,0.714
		l1.635-2.932L53.905,40.213z M39.173,32.847l-1.635,2.932l1.289,0.714l1.635-2.932L39.173,32.847z M47.276,32.847l-1.635,2.932
		l1.289,0.714l1.635-2.932L47.276,32.847z M31.808,40.213l-1.635,2.932l1.289,0.714l1.635-2.932L31.808,40.213z M24.442,32.847
		l-1.635,2.932l1.289,0.714l1.635-2.932L24.442,32.847z M39.173,40.213l-1.635,2.932l1.289,0.714l1.635-2.932L39.173,40.213z
		 M24.442,26.218l-1.635,2.932l1.289,0.714l1.635-2.932L24.442,26.218z M23.705,40.213l-1.635,2.932l1.289,0.714l1.635-2.932
		L23.705,40.213z M31.808,26.218l-1.635,2.932l1.289,0.714l1.635-2.932L31.808,26.218z"/>
	<path style="fill:#82CD7E;" d="M60.468,36.331c-0.825-0.39-1.738-0.597-2.681-0.589c-0.346-0.685-0.722-1.348-1.12-2.004
		c0.111-0.192,0.221-0.39,0.309-0.589c0.442,0.206,0.906,0.383,1.377,0.552c0.921,0.331,1.959,0.707,2.173,1.223
		C60.675,35.278,60.608,35.779,60.468,36.331z M47.946,22.049c-0.221-0.943-0.479-2.018-0.965-2.291
		c-0.471-0.258-1.51,0.088-2.423,0.398c-1.142,0.39-2.32,0.788-3.329,0.435c-0.545-0.192-0.994-0.604-1.392-1.098
		c0.236,0.523,0.427,1.075,0.56,1.65c2.247,0.678,4.383,1.635,6.364,2.814c0.479-0.295,0.987-0.53,1.517-0.7
		C48.153,22.866,48.042,22.461,47.946,22.049z M22.961,20.59c-1.002,0.354-2.188-0.044-3.329-0.435
		c-0.913-0.309-1.945-0.663-2.423-0.398c-0.486,0.273-0.744,1.348-0.965,2.291c-0.103,0.435-0.221,0.854-0.346,1.267
		c0.442,0.162,0.877,0.361,1.296,0.611c1.967-1.171,4.081-2.114,6.305-2.792c0.088-0.376,0.206-0.737,0.339-1.09
		C23.572,20.281,23.285,20.48,22.961,20.59z M7.043,33.215c-0.39,0.177-0.796,0.339-1.208,0.486
		c-0.913,0.331-1.959,0.707-2.173,1.223c-0.147,0.354-0.125,0.832-0.044,1.363c0.773-0.346,1.621-0.538,2.49-0.538
		c0.361-0.714,0.751-1.414,1.171-2.092C7.198,33.51,7.117,33.363,7.043,33.215z"/>
	<path style="fill:#F75D6A;" d="M60.726,45.546c-0.331-2.917-1.098-5.701-2.225-8.287c1.834,0.258,3.418,1.598,3.889,3.499
		C62.84,42.6,62.133,44.448,60.726,45.546z M54.288,25.82c-1.716-1.532-4.118-1.827-6.099-0.95c2.946,1.996,5.51,4.523,7.55,7.447
		C56.668,30.129,56.167,27.492,54.288,25.82z M31.948,15.883c-3.131,0-5.79,2.011-6.777,4.803c2.173-0.523,4.442-0.803,6.777-0.803
		s4.604,0.28,6.784,0.803C37.737,17.894,35.078,15.883,31.948,15.883z M9.71,25.82c-1.849,1.65-2.357,4.228-1.488,6.401
		c2.04-2.895,4.596-5.399,7.528-7.381C13.776,24.001,11.411,24.303,9.71,25.82z M1.615,40.758c-0.449,1.797,0.228,3.609,1.562,4.714
		c0.339-2.887,1.098-5.635,2.21-8.191C3.603,37.576,2.071,38.894,1.615,40.758z"/>
	<path style="fill:#FFCF67;" d="M31.948,21.356c-14.599,0-26.657,11.41-27.46,25.972c-0.007,0.214,0.066,0.405,0.206,0.56
		c0.14,0.147,0.331,0.228,0.538,0.228h53.432c0.206,0,0.398-0.081,0.538-0.228c0.14-0.155,0.214-0.346,0.206-0.56
		C58.612,32.766,46.547,21.356,31.948,21.356z M8.627,43.859l-1.289-0.714l1.635-2.932l1.289,0.715L8.627,43.859z M15.993,43.859
		l-1.289-0.714l1.635-2.932l1.289,0.715L15.993,43.859z M15.993,36.493l-1.289-0.714l1.635-2.932l1.289,0.715L15.993,36.493z
		 M23.359,43.859l-1.289-0.714l1.635-2.932l1.289,0.715L23.359,43.859z M24.095,36.493l-1.289-0.714l1.635-2.932l1.289,0.715
		L24.095,36.493z M24.095,29.864l-1.289-0.714l1.635-2.932l1.289,0.715L24.095,29.864z M31.461,43.859l-1.289-0.714l1.635-2.932
		l1.289,0.715L31.461,43.859z M31.461,36.493l-1.289-0.714l1.635-2.932l1.289,0.715L31.461,36.493z M31.461,29.864l-1.289-0.714
		l1.635-2.932l1.289,0.715L31.461,29.864z M38.827,43.859l-1.289-0.714l1.635-2.932l1.289,0.715L38.827,43.859z M38.827,36.493
		l-1.289-0.714l1.635-2.932l1.289,0.715L38.827,36.493z M38.827,29.864l-1.289-0.714l1.635-2.932l1.289,0.715L38.827,29.864z
		 M46.193,43.859l-1.289-0.714l1.635-2.932l1.289,0.715L46.193,43.859z M46.93,36.493l-1.289-0.714l1.635-2.932l1.289,0.715
		L46.93,36.493z M53.559,43.859l-1.289-0.714l1.635-2.932l1.289,0.715L53.559,43.859z"/>
</g>
<g id="Layer_1">
</g>
</svg>
