<?xml version="1.0" encoding="iso-8859-1"?>
<!-- Generator: Adobe Illustrator 24.0.3, SVG Export Plug-In . SVG Version: 6.00 Build 0)  -->
<svg version="1.1" xmlns="http://www.w3.org/2000/svg" xmlns:xlink="http://www.w3.org/1999/xlink" x="0px" y="0px"
	 viewBox="0 0 64 64" style="enable-background:new 0 0 64 64;" xml:space="preserve">
<g id="beef">
	<path style="fill:#231F20;" d="M48.158,11.197c-4.734,0-8.583,3.177-8.583,7.08c0,3.902,3.849,7.069,8.583,7.069
		s8.572-3.167,8.572-7.069C56.73,14.374,52.892,11.197,48.158,11.197z M48.158,23.213c-3.551,0-6.451-2.218-6.451-4.937
		c0-2.73,2.9-4.947,6.451-4.947c3.551,0,6.44,2.218,6.44,4.947C54.598,20.996,51.708,23.213,48.158,23.213z M48.158,11.197
		c-4.734,0-8.583,3.177-8.583,7.08c0,3.902,3.849,7.069,8.583,7.069s8.572-3.167,8.572-7.069
		C56.73,14.374,52.892,11.197,48.158,11.197z M48.158,23.213c-3.551,0-6.451-2.218-6.451-4.937c0-2.73,2.9-4.947,6.451-4.947
		c3.551,0,6.44,2.218,6.44,4.947C54.598,20.996,51.708,23.213,48.158,23.213z M48.158,11.197c-4.734,0-8.583,3.177-8.583,7.08
		c0,3.902,3.849,7.069,8.583,7.069s8.572-3.167,8.572-7.069C56.73,14.374,52.892,11.197,48.158,11.197z M48.158,23.213
		c-3.551,0-6.451-2.218-6.451-4.937c0-2.73,2.9-4.947,6.451-4.947c3.551,0,6.44,2.218,6.44,4.947
		C54.598,20.996,51.708,23.213,48.158,23.213z M48.158,11.197c-4.734,0-8.583,3.177-8.583,7.08c0,3.902,3.849,7.069,8.583,7.069
		s8.572-3.167,8.572-7.069C56.73,14.374,52.892,11.197,48.158,11.197z M48.158,23.213c-3.551,0-6.451-2.218-6.451-4.937
		c0-2.73,2.9-4.947,6.451-4.947c3.551,0,6.44,2.218,6.44,4.947C54.598,20.996,51.708,23.213,48.158,23.213z M48.158,11.197
		c-4.734,0-8.583,3.177-8.583,7.08c0,3.902,3.849,7.069,8.583,7.069s8.572-3.167,8.572-7.069
		C56.73,14.374,52.892,11.197,48.158,11.197z M48.158,23.213c-3.551,0-6.451-2.218-6.451-4.937c0-2.73,2.9-4.947,6.451-4.947
		c3.551,0,6.44,2.218,6.44,4.947C54.598,20.996,51.708,23.213,48.158,23.213z M48.158,11.197c-4.734,0-8.583,3.177-8.583,7.08
		c0,3.902,3.849,7.069,8.583,7.069s8.572-3.167,8.572-7.069C56.73,14.374,52.892,11.197,48.158,11.197z M48.158,23.213
		c-3.551,0-6.451-2.218-6.451-4.937c0-2.73,2.9-4.947,6.451-4.947c3.551,0,6.44,2.218,6.44,4.947
		C54.598,20.996,51.708,23.213,48.158,23.213z M63.991,17.36c-0.139-5.171-3.359-8.658-9.298-10.087
		C39.042,3.531,8.377,15.163,1.777,27.35c-1.439,2.655-1.898,5.129-1.685,7.389c-0.032,1.066-0.213,7.058,0.043,9.116
		c0.864,7.069,8.114,11.665,14.927,13.083c1.503,0.32,3.113,0.501,4.745,0.501c4.745,0,9.607-1.567,12.208-5.982
		c5.097-8.636,12.368-10.908,18.787-12.912c6.931-2.164,13.467-4.201,13.189-14.426v-6.142h-0.011
		C63.981,17.765,64.002,17.573,63.991,17.36z M24.242,13.884c3.092-1.237,6.312-2.303,9.511-3.135v25.952h0.043
		c-1.279,1.343-2.506,2.932-3.614,4.819c-1.29,2.186-3.423,3.572-5.939,4.286V13.884z M11.735,20.356
		c3.007-2.036,6.557-3.945,10.374-5.587v31.486c-3.327,0.448-7.048-0.085-10.374-1.407V20.356z M3.653,28.374
		c1.184-2.196,3.263-4.393,5.95-6.472v21.964c-0.149-0.085-0.309-0.16-0.458-0.235c-1.791-1.024-6.365-4.073-6.909-8.988
		c-0.043-0.331-0.053-0.661-0.053-1.002C2.182,32.052,2.598,30.304,3.653,28.374z M50.162,36.509
		c-6.451,2.015-14.469,4.521-19.981,13.872c-2.922,4.947-9.5,5.555-14.682,4.478C9.635,53.633,2.982,49.592,2.246,43.6
		c-0.085-0.714-0.107-2.026-0.107-3.423c1.493,2.186,3.625,3.988,5.96,5.31c3.519,1.983,7.698,3.092,11.665,3.092
		c5.097,0,9.809-1.834,12.251-5.971c5.15-8.743,12.507-10.46,19-11.974c4.286-1.002,8.423-1.962,10.833-5.075
		C61.507,32.959,56.698,34.473,50.162,36.509z M50.536,28.555c-4.574,1.066-9.927,2.324-14.65,6.195V10.227
		c4.233-0.97,8.37-1.525,12.07-1.525c2.271,0,4.372,0.203,6.237,0.65c4.979,1.194,7.56,3.902,7.666,8.061
		C62.094,25.868,57.487,26.934,50.536,28.555z M48.158,11.197c-4.734,0-8.583,3.177-8.583,7.08c0,3.902,3.849,7.069,8.583,7.069
		s8.572-3.167,8.572-7.069C56.73,14.374,52.892,11.197,48.158,11.197z M48.158,23.213c-3.551,0-6.451-2.218-6.451-4.937
		c0-2.73,2.9-4.947,6.451-4.947c3.551,0,6.44,2.218,6.44,4.947C54.598,20.996,51.708,23.213,48.158,23.213z M48.158,11.197
		c-4.734,0-8.583,3.177-8.583,7.08c0,3.902,3.849,7.069,8.583,7.069s8.572-3.167,8.572-7.069
		C56.73,14.374,52.892,11.197,48.158,11.197z M48.158,23.213c-3.551,0-6.451-2.218-6.451-4.937c0-2.73,2.9-4.947,6.451-4.947
		c3.551,0,6.44,2.218,6.44,4.947C54.598,20.996,51.708,23.213,48.158,23.213z M48.158,11.197c-4.734,0-8.583,3.177-8.583,7.08
		c0,3.902,3.849,7.069,8.583,7.069s8.572-3.167,8.572-7.069C56.73,14.374,52.892,11.197,48.158,11.197z M48.158,23.213
		c-3.551,0-6.451-2.218-6.451-4.937c0-2.73,2.9-4.947,6.451-4.947c3.551,0,6.44,2.218,6.44,4.947
		C54.598,20.996,51.708,23.213,48.158,23.213z M48.158,11.197c-4.734,0-8.583,3.177-8.583,7.08c0,3.902,3.849,7.069,8.583,7.069
		s8.572-3.167,8.572-7.069C56.73,14.374,52.892,11.197,48.158,11.197z M48.158,23.213c-3.551,0-6.451-2.218-6.451-4.937
		c0-2.73,2.9-4.947,6.451-4.947c3.551,0,6.44,2.218,6.44,4.947C54.598,20.996,51.708,23.213,48.158,23.213z M48.158,11.197
		c-4.734,0-8.583,3.177-8.583,7.08c0,3.902,3.849,7.069,8.583,7.069s8.572-3.167,8.572-7.069
		C56.73,14.374,52.892,11.197,48.158,11.197z M48.158,23.213c-3.551,0-6.451-2.218-6.451-4.937c0-2.73,2.9-4.947,6.451-4.947
		c3.551,0,6.44,2.218,6.44,4.947C54.598,20.996,51.708,23.213,48.158,23.213z"/>
</g>
<g id="Layer_1">
</g>
</svg>
