<?xml version="1.0" encoding="iso-8859-1"?>
<!-- Generator: Adobe Illustrator 24.0.3, SVG Export Plug-In . SVG Version: 6.00 Build 0)  -->
<svg version="1.1" xmlns="http://www.w3.org/2000/svg" xmlns:xlink="http://www.w3.org/1999/xlink" x="0px" y="0px"
	 viewBox="0 0 64 64" style="enable-background:new 0 0 64 64;" xml:space="preserve">
<g id="burger">
	<path style="fill:#231F20;" d="M33.068,15.705v2.646h-2.125v-2.646H33.068z M35.778,15.705v2.646h2.125v-2.646H35.778z
		 M40.612,15.705v2.646h2.125v-2.646H40.612z M21.262,15.705v2.646h2.125v-2.646H21.262z M26.097,15.705v2.646h2.125v-2.646H26.097z
		 M30.996,11.455v2.646h2.125v-2.646H30.996z M36.309,11.455v2.646h2.125v-2.646H36.309z M25.566,11.455v2.646h2.125v-2.646H25.566z
		 M64,41.813c0,2.933-2.178,5.377-5.005,5.781v1.126c0,4.686-3.815,8.501-8.501,8.501H13.506c-4.686,0-8.501-3.815-8.501-8.501
		v-1.126C2.178,47.19,0,44.746,0,41.813c0-1.976,0.988-3.719,2.497-4.782C0.988,35.969,0,34.226,0,32.25
		c0-3.039,2.327-5.536,5.292-5.812C8.926,14.834,19.786,6.779,32.005,6.779s23.079,8.054,26.703,19.658
		C61.673,26.714,64,29.211,64,32.25c0,1.976-0.988,3.719-2.497,4.782C63.012,38.094,64,39.837,64,41.813z M7.513,26.405h48.975
		C52.938,16.035,43.067,8.905,32.005,8.905C20.944,8.905,11.062,16.035,7.513,26.405z M5.844,35.969h52.311
		c2.051,0,3.719-1.668,3.719-3.719s-1.668-3.719-3.719-3.719H5.844c-2.051,0-3.719,1.668-3.719,3.719S3.793,35.969,5.844,35.969z
		 M24.227,38.094l9.043,7.438l2.582,2.125l0.818,0.669l0.521-0.669l1.636-2.125l5.727-7.438H24.227z M5.844,45.532h24.078
		l-9.043-7.438H5.844c-2.051,0-3.719,1.668-3.719,3.719S3.793,45.532,5.844,45.532z M56.87,47.657H39.858l-2.178,2.827
		c-0.17,0.234-0.436,0.383-0.723,0.414H36.84c-0.244,0-0.489-0.085-0.68-0.234l-3.655-3.007H7.13v1.063
		c0,3.517,2.858,6.376,6.376,6.376h36.989c3.517,0,6.376-2.858,6.376-6.376V47.657z M61.875,41.813c0-2.051-1.668-3.719-3.719-3.719
		H47.232l-5.738,7.438h16.661C60.207,45.532,61.875,43.864,61.875,41.813z M56.307,31.41c-0.627,0.489-1.084,0.839-2.083,0.839
		c-1.009,0-1.456-0.351-2.083-0.839c-0.744-0.574-1.658-1.286-3.39-1.286c-1.732,0-2.656,0.712-3.39,1.286
		c-0.627,0.489-1.084,0.839-2.083,0.839c-1.009,0-1.456-0.351-2.083-0.839c-0.744-0.574-1.658-1.286-3.39-1.286
		c-1.732,0-2.646,0.712-3.379,1.286c-0.627,0.489-1.084,0.839-2.083,0.839c-1.009,0-1.456-0.351-2.083-0.839
		c-0.744-0.574-1.658-1.286-3.39-1.286c-1.732,0-2.646,0.712-3.39,1.286c-0.627,0.489-1.073,0.839-2.083,0.839
		c-0.999,0-1.456-0.351-2.083-0.839c-0.733-0.574-1.647-1.286-3.379-1.286c-1.732,0-2.656,0.712-3.39,1.286
		c-0.627,0.489-1.073,0.839-2.083,0.839c-0.999,0-1.445-0.351-2.072-0.839c-0.744-0.574-1.658-1.286-3.39-1.286v2.125
		c0.999,0,1.456,0.351,2.083,0.839c0.733,0.574,1.647,1.286,3.379,1.286s2.656-0.712,3.39-1.286
		c0.627-0.489,1.073-0.839,2.083-0.839c0.999,0,1.456,0.351,2.083,0.839c0.733,0.574,1.647,1.286,3.379,1.286
		c1.732,0,2.656-0.712,3.39-1.286c0.627-0.489,1.084-0.839,2.083-0.839c0.999,0,1.456,0.351,2.083,0.839
		c0.733,0.574,1.658,1.286,3.39,1.286c1.732,0,2.646-0.712,3.379-1.286c0.627-0.489,1.084-0.839,2.083-0.839
		c1.009,0,1.456,0.351,2.083,0.839c0.744,0.574,1.658,1.286,3.39,1.286c1.732,0,2.646-0.712,3.39-1.286
		c0.627-0.489,1.073-0.839,2.083-0.839c0.999,0,1.456,0.351,2.083,0.839c0.733,0.574,1.658,1.286,3.39,1.286
		c1.732,0,2.646-0.712,3.39-1.286c0.627-0.489,1.084-0.839,2.083-0.839v-2.125C57.964,30.125,57.051,30.836,56.307,31.41z"/>
</g>
<g id="Layer_1">
</g>
</svg>
