<?xml version="1.0" encoding="iso-8859-1"?>
<!-- Generator: Adobe Illustrator 24.0.3, SVG Export Plug-In . SVG Version: 6.00 Build 0)  -->
<svg version="1.1" xmlns="http://www.w3.org/2000/svg" xmlns:xlink="http://www.w3.org/1999/xlink" x="0px" y="0px"
	 viewBox="0 0 64 64" style="enable-background:new 0 0 64 64;" xml:space="preserve">
<g id="coffee">
	<path style="fill:#231F20;" d="M32,34.674c-4.957,0-8.986,4.029-8.986,8.986c0,4.957,4.029,8.986,8.986,8.986
		c4.957,0,8.986-4.029,8.986-8.986C40.986,38.703,36.957,34.674,32,34.674z M32,50.79c-3.936,0-7.13-3.194-7.13-7.13
		s3.194-7.13,7.13-7.13s7.13,3.194,7.13,7.13S35.936,50.79,32,50.79z M32,34.674c-4.957,0-8.986,4.029-8.986,8.986
		c0,4.957,4.029,8.986,8.986,8.986c4.957,0,8.986-4.029,8.986-8.986C40.986,38.703,36.957,34.674,32,34.674z M32,50.79
		c-3.936,0-7.13-3.194-7.13-7.13s3.194-7.13,7.13-7.13s7.13,3.194,7.13,7.13S35.936,50.79,32,50.79z M32,34.674
		c-4.957,0-8.986,4.029-8.986,8.986c0,4.957,4.029,8.986,8.986,8.986c4.957,0,8.986-4.029,8.986-8.986
		C40.986,38.703,36.957,34.674,32,34.674z M32,50.79c-3.936,0-7.13-3.194-7.13-7.13s3.194-7.13,7.13-7.13s7.13,3.194,7.13,7.13
		S35.936,50.79,32,50.79z M32,34.674c-4.957,0-8.986,4.029-8.986,8.986c0,4.957,4.029,8.986,8.986,8.986
		c4.957,0,8.986-4.029,8.986-8.986C40.986,38.703,36.957,34.674,32,34.674z M32,50.79c-3.936,0-7.13-3.194-7.13-7.13
		s3.194-7.13,7.13-7.13s7.13,3.194,7.13,7.13S35.936,50.79,32,50.79z M48.682,17.035l-0.798-2.794
		c-0.214-0.724-0.882-1.225-1.625-1.225H33.151V5.162l5.793-3.583L37.969,0l-6.675,4.122v8.894H17.75
		c-0.752,0-1.42,0.501-1.634,1.225l-0.798,2.794c-0.91,0.028-1.643,0.77-1.643,1.69v4.902c0,0.882,0.687,1.606,1.56,1.68
		l3.156,36.567C18.502,63.09,19.495,64,20.711,64h22.577c1.216,0,2.209-0.91,2.321-2.126l3.147-36.567
		c0.873-0.065,1.569-0.789,1.569-1.68v-4.902C50.325,17.806,49.592,17.063,48.682,17.035z M17.871,14.872h28.259l0.622,2.163H17.249
		L17.871,14.872z M43.753,61.716c-0.019,0.241-0.214,0.427-0.464,0.427H20.711c-0.251,0-0.446-0.186-0.464-0.427l-0.306-3.481
		h24.118L43.753,61.716z M44.217,56.378H19.783L17.574,30.83h28.844L44.217,56.378z M46.575,28.974H17.416l-0.325-3.658h29.8
		L46.575,28.974z M48.469,23.459H15.531v-4.567h32.938V23.459z M32,52.646c4.957,0,8.986-4.029,8.986-8.986
		c0-4.957-4.029-8.986-8.986-8.986c-4.957,0-8.986,4.029-8.986,8.986C23.014,48.617,27.043,52.646,32,52.646z M32,36.53
		c3.936,0,7.13,3.194,7.13,7.13s-3.194,7.13-7.13,7.13s-7.13-3.194-7.13-7.13S28.064,36.53,32,36.53z M32,34.674
		c-4.957,0-8.986,4.029-8.986,8.986c0,4.957,4.029,8.986,8.986,8.986c4.957,0,8.986-4.029,8.986-8.986
		C40.986,38.703,36.957,34.674,32,34.674z M32,50.79c-3.936,0-7.13-3.194-7.13-7.13s3.194-7.13,7.13-7.13s7.13,3.194,7.13,7.13
		S35.936,50.79,32,50.79z M32,34.674c-4.957,0-8.986,4.029-8.986,8.986c0,4.957,4.029,8.986,8.986,8.986
		c4.957,0,8.986-4.029,8.986-8.986C40.986,38.703,36.957,34.674,32,34.674z M32,50.79c-3.936,0-7.13-3.194-7.13-7.13
		s3.194-7.13,7.13-7.13s7.13,3.194,7.13,7.13S35.936,50.79,32,50.79z M32,34.674c-4.957,0-8.986,4.029-8.986,8.986
		c0,4.957,4.029,8.986,8.986,8.986c4.957,0,8.986-4.029,8.986-8.986C40.986,38.703,36.957,34.674,32,34.674z M32,50.79
		c-3.936,0-7.13-3.194-7.13-7.13s3.194-7.13,7.13-7.13s7.13,3.194,7.13,7.13S35.936,50.79,32,50.79z M32,34.674
		c-4.957,0-8.986,4.029-8.986,8.986c0,4.957,4.029,8.986,8.986,8.986c4.957,0,8.986-4.029,8.986-8.986
		C40.986,38.703,36.957,34.674,32,34.674z M32,50.79c-3.936,0-7.13-3.194-7.13-7.13s3.194-7.13,7.13-7.13s7.13,3.194,7.13,7.13
		S35.936,50.79,32,50.79z"/>
</g>
<g id="Layer_1">
</g>
</svg>
