<?xml version="1.0" encoding="iso-8859-1"?>
<!-- Generator: Adobe Illustrator 24.0.3, SVG Export Plug-In . SVG Version: 6.00 Build 0)  -->
<svg version="1.1" xmlns="http://www.w3.org/2000/svg" xmlns:xlink="http://www.w3.org/1999/xlink" x="0px" y="0px"
	 viewBox="0 0 64 64" style="enable-background:new 0 0 64 64;" xml:space="preserve">
<g id="doughnut">
	<path style="fill:#231F20;" d="M32.132,19.994c-6.522,0-11.835,5.313-11.835,11.835c0,6.532,5.313,11.835,11.835,11.835
		c6.532,0,11.835-5.303,11.835-11.835C43.967,25.307,38.664,19.994,32.132,19.994z M32.132,41.714c-5.45,0-9.885-4.436-9.885-9.885
		c0-5.45,4.436-9.885,9.885-9.885c5.45,0,9.885,4.436,9.885,9.885C42.017,37.279,37.581,41.714,32.132,41.714z M3.88,31.595
		l-0.497,1.891L7.37,34.53l0.497-1.882L3.88,31.595z M13.882,22.08l-1.531,1.199l2.535,3.246l1.54-1.199L13.882,22.08z
		 M17.129,34.296l-1.95,3.636l1.725,0.916l1.94-3.636L17.129,34.296z M15.267,13.199l-0.497,1.882l3.997,1.053l0.487-1.891
		L15.267,13.199z M23.153,6.19l-0.497,1.882l3.987,1.053l0.497-1.891L23.153,6.19z M26.107,44.278l-3.471,2.232l1.053,1.638
		l3.471-2.232L26.107,44.278z M28.993,13.277l-1.638,1.053l2.213,3.471l1.648-1.043L28.993,13.277z M32.132,19.994
		c-6.522,0-11.835,5.313-11.835,11.835c0,6.532,5.313,11.835,11.835,11.835c6.532,0,11.835-5.303,11.835-11.835
		C43.967,25.307,38.664,19.994,32.132,19.994z M32.132,41.714c-5.45,0-9.885-4.436-9.885-9.885c0-5.45,4.436-9.885,9.885-9.885
		c5.45,0,9.885,4.436,9.885,9.885C42.017,37.279,37.581,41.714,32.132,41.714z M37.991,12.585l-1.267,1.472l3.12,2.691l1.277-1.472
		L37.991,12.585z M47.272,37.834l-1.589,1.141l2.418,3.344l1.579-1.141L47.272,37.834z M49.914,23.601l-3.919,1.306l0.624,1.852
		l3.909-1.306L49.914,23.601z M53.014,30.991l-3.159,2.652l1.258,1.501l3.159-2.661L53.014,30.991z M57.167,37.805l-1.706,0.946
		l2.018,3.597l1.696-0.946L57.167,37.805z M57.167,37.805l-1.706,0.946l2.018,3.597l1.696-0.946L57.167,37.805z M49.855,33.642
		l1.258,1.501l3.159-2.661l-1.258-1.492L49.855,33.642z M50.528,25.454l-0.614-1.852l-3.919,1.306l0.624,1.852L50.528,25.454z
		 M45.683,38.975l2.418,3.344l1.579-1.141l-2.408-3.344L45.683,38.975z M41.12,15.276l-3.129-2.691l-1.267,1.472l3.12,2.691
		L41.12,15.276z M32.132,19.994c-6.522,0-11.835,5.313-11.835,11.835c0,6.532,5.313,11.835,11.835,11.835
		c6.532,0,11.835-5.303,11.835-11.835C43.967,25.307,38.664,19.994,32.132,19.994z M32.132,41.714c-5.45,0-9.885-4.436-9.885-9.885
		c0-5.45,4.436-9.885,9.885-9.885c5.45,0,9.885,4.436,9.885,9.885C42.017,37.279,37.581,41.714,32.132,41.714z M31.215,16.758
		l-2.223-3.48l-1.638,1.053l2.213,3.471L31.215,16.758z M22.637,46.511l1.053,1.638l3.471-2.232l-1.053-1.638L22.637,46.511z
		 M27.14,7.233L23.153,6.19l-0.497,1.882l3.987,1.053L27.14,7.233z M14.769,15.081l3.997,1.053l0.487-1.891l-3.987-1.043
		L14.769,15.081z M15.179,37.932l1.725,0.916l1.94-3.636l-1.716-0.916L15.179,37.932z M13.882,22.08l-1.531,1.199l2.535,3.246
		l1.54-1.199L13.882,22.08z M3.383,33.486L7.37,34.53l0.497-1.882L3.88,31.595L3.383,33.486z M63.435,34.968
		c-3.266-1.511-5.372-4.816-5.372-8.403c0-1.55,0.39-3.071,1.121-4.416c0.136-0.253,0.156-0.556,0.049-0.829l-0.507-1.297
		c-0.195-0.497-0.751-0.741-1.248-0.556c-1.053,0.4-2.154,0.604-3.276,0.604c-5.118,0-9.281-4.163-9.281-9.261l0.01-0.809
		c0.01-0.224-0.068-0.448-0.205-0.624l-1.813-2.291c-0.283-0.361-0.79-0.478-1.199-0.263c-1.297,0.653-2.7,0.985-4.163,0.985
		c-4.26,0-7.965-2.895-8.998-7.039c-0.117-0.487-0.595-0.799-1.082-0.731C11.806,2.32,0,15.987,0,31.829
		c0,17.723,14.418,32.142,32.132,32.142c16.105,0,29.802-12.04,31.859-27.989C64.049,35.563,63.825,35.154,63.435,34.968z
		 M32.132,62.021c-12.352,0-22.988-7.468-27.657-18.113c0.975-0.77,3.237-2.281,5.654-1.93c1.989,0.292,3.744,1.774,5.235,4.426
		c1.648,2.944,4.748,5.108,8.501,5.947c4.543,1.014,9.33,0.039,13.141-2.691c2.817-2.008,6.59-2.369,10.343-0.994
		c2.798,1.024,5.167,2.925,5.927,4.679C47.788,58.726,40.292,62.021,32.132,62.021z M54.69,51.863
		c-1.199-2.028-3.666-3.929-6.668-5.03c-4.367-1.599-8.803-1.15-12.147,1.248c-3.363,2.398-7.585,3.256-11.591,2.369
		c-3.207-0.721-5.849-2.544-7.224-5.001c-1.804-3.207-4.046-5.021-6.658-5.401c-2.817-0.4-5.303,0.985-6.678,1.979
		C2.583,38.839,1.95,35.407,1.95,31.829c0-14.604,10.675-27.228,24.967-29.724c1.521,4.543,5.771,7.653,10.636,7.653
		c1.501,0,2.944-0.292,4.309-0.858l1.121,1.414l-0.01,0.478c0,6.19,5.04,11.231,11.231,11.231c1.043,0,2.057-0.146,3.051-0.419
		l0.01,0.02c-0.76,1.531-1.15,3.227-1.15,4.943c0,4.094,2.271,7.887,5.849,9.846C61.066,42.319,58.463,47.622,54.69,51.863z
		 M55.461,38.751l2.018,3.597l1.696-0.946l-2.008-3.597L55.461,38.751z M49.855,33.642l1.258,1.501l3.159-2.661l-1.258-1.492
		L49.855,33.642z M50.528,25.454l-0.614-1.852l-3.919,1.306l0.624,1.852L50.528,25.454z M45.683,38.975l2.418,3.344l1.579-1.141
		l-2.408-3.344L45.683,38.975z M41.12,15.276l-3.129-2.691l-1.267,1.472l3.12,2.691L41.12,15.276z M32.132,19.994
		c-6.522,0-11.835,5.313-11.835,11.835c0,6.532,5.313,11.835,11.835,11.835c6.532,0,11.835-5.303,11.835-11.835
		C43.967,25.307,38.664,19.994,32.132,19.994z M32.132,41.714c-5.45,0-9.885-4.436-9.885-9.885c0-5.45,4.436-9.885,9.885-9.885
		c5.45,0,9.885,4.436,9.885,9.885C42.017,37.279,37.581,41.714,32.132,41.714z M31.215,16.758l-2.223-3.48l-1.638,1.053l2.213,3.471
		L31.215,16.758z M22.637,46.511l1.053,1.638l3.471-2.232l-1.053-1.638L22.637,46.511z M27.14,7.233L23.153,6.19l-0.497,1.882
		l3.987,1.053L27.14,7.233z M14.769,15.081l3.997,1.053l0.487-1.891l-3.987-1.043L14.769,15.081z M15.179,37.932l1.725,0.916
		l1.94-3.636l-1.716-0.916L15.179,37.932z M13.882,22.08l-1.531,1.199l2.535,3.246l1.54-1.199L13.882,22.08z M3.383,33.486
		L7.37,34.53l0.497-1.882L3.88,31.595L3.383,33.486z M3.88,31.595l-0.497,1.891L7.37,34.53l0.497-1.882L3.88,31.595z M13.882,22.08
		l-1.531,1.199l2.535,3.246l1.54-1.199L13.882,22.08z M17.129,34.296l-1.95,3.636l1.725,0.916l1.94-3.636L17.129,34.296z
		 M15.267,13.199l-0.497,1.882l3.997,1.053l0.487-1.891L15.267,13.199z M23.153,6.19l-0.497,1.882l3.987,1.053l0.497-1.891
		L23.153,6.19z M26.107,44.278l-3.471,2.232l1.053,1.638l3.471-2.232L26.107,44.278z M28.993,13.277l-1.638,1.053l2.213,3.471
		l1.648-1.043L28.993,13.277z M32.132,19.994c-6.522,0-11.835,5.313-11.835,11.835c0,6.532,5.313,11.835,11.835,11.835
		c6.532,0,11.835-5.303,11.835-11.835C43.967,25.307,38.664,19.994,32.132,19.994z M32.132,41.714c-5.45,0-9.885-4.436-9.885-9.885
		c0-5.45,4.436-9.885,9.885-9.885c5.45,0,9.885,4.436,9.885,9.885C42.017,37.279,37.581,41.714,32.132,41.714z M37.991,12.585
		l-1.267,1.472l3.12,2.691l1.277-1.472L37.991,12.585z M47.272,37.834l-1.589,1.141l2.418,3.344l1.579-1.141L47.272,37.834z
		 M49.914,23.601l-3.919,1.306l0.624,1.852l3.909-1.306L49.914,23.601z M53.014,30.991l-3.159,2.652l1.258,1.501l3.159-2.661
		L53.014,30.991z M57.167,37.805l-1.706,0.946l2.018,3.597l1.696-0.946L57.167,37.805z M23.153,6.19l-0.497,1.882l3.987,1.053
		l0.497-1.891L23.153,6.19z M15.267,13.199l-0.497,1.882l3.997,1.053l0.487-1.891L15.267,13.199z M37.991,12.585l-1.267,1.472
		l3.12,2.691l1.277-1.472L37.991,12.585z M49.914,23.601l-3.919,1.306l0.624,1.852l3.909-1.306L49.914,23.601z M57.167,37.805
		l-1.706,0.946l2.018,3.597l1.696-0.946L57.167,37.805z M47.272,37.834l-1.589,1.141l2.418,3.344l1.579-1.141L47.272,37.834z
		 M53.014,30.991l-3.159,2.652l1.258,1.501l3.159-2.661L53.014,30.991z M28.993,13.277l-1.638,1.053l2.213,3.471l1.648-1.043
		L28.993,13.277z M13.882,22.08l-1.531,1.199l2.535,3.246l1.54-1.199L13.882,22.08z M3.88,31.595l-0.497,1.891L7.37,34.53
		l0.497-1.882L3.88,31.595z M17.129,34.296l-1.95,3.636l1.725,0.916l1.94-3.636L17.129,34.296z M26.107,44.278l-3.471,2.232
		l1.053,1.638l3.471-2.232L26.107,44.278z"/>
</g>
<g id="Layer_1">
</g>
</svg>
