<?xml version="1.0" encoding="iso-8859-1"?>
<!-- Generator: Adobe Illustrator 24.0.3, SVG Export Plug-In . SVG Version: 6.00 Build 0)  -->
<svg version="1.1" xmlns="http://www.w3.org/2000/svg" xmlns:xlink="http://www.w3.org/1999/xlink" x="0px" y="0px"
	 viewBox="0 0 64 64" style="enable-background:new 0 0 64 64;" xml:space="preserve">
<g id="pizza">
	<path style="fill:#231F20;" d="M18.792,43.706l-4.595,0.362l0.152,1.906l4.585-0.372L18.792,43.706z M27.247,37.357l-4.585,0.362
		l0.152,1.906l4.585-0.372L27.247,37.357z M29.364,15.138l-4.585,0.372l0.153,1.897l4.585-0.362L29.364,15.138z M41.365,24.966
		c-0.906-1.897-2.507-3.336-4.499-4.042c-1.992-0.696-4.127-0.581-6.034,0.324c-1.906,0.915-3.346,2.507-4.042,4.499
		c-0.705,1.992-0.591,4.137,0.324,6.034c0.906,1.906,2.507,3.346,4.499,4.042c0.858,0.315,1.744,0.458,2.621,0.458
		c3.251,0,6.31-2.03,7.454-5.271C42.394,29.017,42.28,26.872,41.365,24.966z M39.887,30.37c-1.096,3.117-4.528,4.757-7.645,3.66
		c-3.117-1.106-4.757-4.528-3.66-7.645c0.534-1.516,1.63-2.726,3.069-3.422c0.82-0.391,1.697-0.581,2.583-0.581
		c0.667,0,1.344,0.114,2.002,0.343c1.506,0.534,2.717,1.62,3.413,3.06C40.335,27.234,40.421,28.864,39.887,30.37z M41.365,24.966
		c-0.906-1.897-2.507-3.336-4.499-4.042c-1.992-0.696-4.127-0.581-6.034,0.324c-1.906,0.915-3.346,2.507-4.042,4.499
		c-0.705,1.992-0.591,4.137,0.324,6.034c0.906,1.906,2.507,3.346,4.499,4.042c0.858,0.315,1.744,0.458,2.621,0.458
		c3.251,0,6.31-2.03,7.454-5.271C42.394,29.017,42.28,26.872,41.365,24.966z M39.887,30.37c-1.096,3.117-4.528,4.757-7.645,3.66
		c-3.117-1.106-4.757-4.528-3.66-7.645c0.534-1.516,1.63-2.726,3.069-3.422c0.82-0.391,1.697-0.581,2.583-0.581
		c0.667,0,1.344,0.114,2.002,0.343c1.506,0.534,2.717,1.62,3.413,3.06C40.335,27.234,40.421,28.864,39.887,30.37z M29.364,15.138
		l-4.585,0.372l0.153,1.897l4.585-0.362L29.364,15.138z M27.247,37.357l-4.585,0.362l0.152,1.906l4.585-0.372L27.247,37.357z
		 M18.792,43.706l-4.595,0.362l0.152,1.906l4.585-0.372L18.792,43.706z M18.792,43.706l-4.595,0.362l0.152,1.906l4.585-0.372
		L18.792,43.706z M27.247,37.357l-4.585,0.362l0.152,1.906l4.585-0.372L27.247,37.357z M29.364,15.138l-4.585,0.372l0.153,1.897
		l4.585-0.362L29.364,15.138z M41.365,24.966c-0.906-1.897-2.507-3.336-4.499-4.042c-1.992-0.696-4.127-0.581-6.034,0.324
		c-1.906,0.915-3.346,2.507-4.042,4.499c-0.705,1.992-0.591,4.137,0.324,6.034c0.906,1.906,2.507,3.346,4.499,4.042
		c0.858,0.315,1.744,0.458,2.621,0.458c3.251,0,6.31-2.03,7.454-5.271C42.394,29.017,42.28,26.872,41.365,24.966z M39.887,30.37
		c-1.096,3.117-4.528,4.757-7.645,3.66c-3.117-1.106-4.757-4.528-3.66-7.645c0.534-1.516,1.63-2.726,3.069-3.422
		c0.82-0.391,1.697-0.581,2.583-0.581c0.667,0,1.344,0.114,2.002,0.343c1.506,0.534,2.717,1.62,3.413,3.06
		C40.335,27.234,40.421,28.864,39.887,30.37z M41.365,24.966c-0.906-1.897-2.507-3.336-4.499-4.042
		c-1.992-0.696-4.127-0.581-6.034,0.324c-1.906,0.915-3.346,2.507-4.042,4.499c-0.705,1.992-0.591,4.137,0.324,6.034
		c0.906,1.906,2.507,3.346,4.499,4.042c0.858,0.315,1.744,0.458,2.621,0.458c3.251,0,6.31-2.03,7.454-5.271
		C42.394,29.017,42.28,26.872,41.365,24.966z M39.887,30.37c-1.096,3.117-4.528,4.757-7.645,3.66
		c-3.117-1.106-4.757-4.528-3.66-7.645c0.534-1.516,1.63-2.726,3.069-3.422c0.82-0.391,1.697-0.581,2.583-0.581
		c0.667,0,1.344,0.114,2.002,0.343c1.506,0.534,2.717,1.62,3.413,3.06C40.335,27.234,40.421,28.864,39.887,30.37z M29.516,17.044
		l-0.153-1.906l-4.585,0.372l0.153,1.897L29.516,17.044z M22.662,37.72l0.152,1.906l4.585-0.372l-0.152-1.897L22.662,37.72z
		 M14.198,44.068l0.152,1.906l4.585-0.372l-0.143-1.897L14.198,44.068z M57.198,30.408C52.184,15.805,42.165,5.482,28.239,0.563
		c-0.524-0.181-1.049-0.353-1.563-0.515c-0.486-0.162-1.02,0.095-1.192,0.591L23.129,7.35l-5.948,16.853l-3.718,10.524L6.81,53.591
		c-0.133,0.362-0.029,0.763,0.257,1.02c0.295,0.267,0.705,0.324,1.058,0.152l7.997-3.861v4.661c0,1.878,1.525,3.403,3.403,3.403
		c1.878,0,3.403-1.525,3.403-3.403v-6.11c0-0.61,0.505-1.115,1.115-1.115c0.62,0,1.115,0.505,1.115,1.115v10.991
		c0,1.964,1.592,3.555,3.555,3.555s3.565-1.592,3.565-3.555V43.21l18.283-8.741l6.139-2.888
		C57.14,31.371,57.35,30.866,57.198,30.408z M18.668,25.728c2.183,0.972,3.289,3.489,2.478,5.786
		c-0.81,2.307-3.26,3.575-5.576,2.965L18.668,25.728z M30.908,41.752c-0.324,0.162-0.534,0.496-0.534,0.858v17.835
		c0,0.915-0.743,1.649-1.659,1.649c-0.906,0-1.649-0.734-1.649-1.649V49.454c0-1.659-1.354-3.022-3.022-3.022
		c-1.668,0-3.022,1.363-3.022,3.022v6.11c0,0.829-0.667,1.497-1.497,1.497s-1.497-0.667-1.497-1.497v-6.186
		c0-0.324-0.172-0.629-0.448-0.801c-0.276-0.181-0.629-0.2-0.925-0.057l-7.283,3.517l5.576-15.776
		c0.591,0.172,1.201,0.276,1.792,0.276c2.707,0,5.252-1.697,6.205-4.385c1.153-3.289-0.477-6.892-3.651-8.226l5.319-15.07
		c0.21,0.076,0.419,0.133,0.629,0.21c11.296,3.984,19.894,12.735,23.726,24.059L30.908,41.752z M50.725,32.296
		C46.665,20.514,37.666,11.43,25.884,7.264c-0.21-0.067-0.419-0.143-0.629-0.21l1.716-4.909c0.21,0.076,0.419,0.143,0.629,0.219
		c13.107,4.623,22.601,14.251,27.51,27.863L50.725,32.296z M30.832,21.248c-1.906,0.915-3.346,2.507-4.042,4.499
		c-0.705,1.992-0.591,4.137,0.324,6.034c0.906,1.906,2.507,3.346,4.499,4.042c0.858,0.315,1.744,0.458,2.621,0.458
		c3.251,0,6.31-2.03,7.454-5.271c0.705-1.992,0.591-4.137-0.324-6.043c-0.906-1.897-2.507-3.336-4.499-4.042
		C34.873,20.228,32.738,20.342,30.832,21.248z M39.649,25.785c0.686,1.449,0.772,3.079,0.238,4.585
		c-1.096,3.117-4.528,4.757-7.645,3.66c-3.117-1.106-4.757-4.528-3.66-7.645c0.534-1.516,1.63-2.726,3.069-3.422
		c0.82-0.391,1.697-0.581,2.583-0.581c0.667,0,1.344,0.114,2.002,0.343C37.742,23.259,38.953,24.346,39.649,25.785z M29.516,17.044
		l-0.153-1.906l-4.585,0.372l0.153,1.897L29.516,17.044z M22.662,37.72l0.152,1.906l4.585-0.372l-0.152-1.897L22.662,37.72z
		 M14.198,44.068l0.152,1.906l4.585-0.372l-0.143-1.897L14.198,44.068z M18.792,43.706l-4.595,0.362l0.152,1.906l4.585-0.372
		L18.792,43.706z M27.247,37.357l-4.585,0.362l0.152,1.906l4.585-0.372L27.247,37.357z M29.364,15.138l-4.585,0.372l0.153,1.897
		l4.585-0.362L29.364,15.138z M41.365,24.966c-0.906-1.897-2.507-3.336-4.499-4.042c-1.992-0.696-4.127-0.581-6.034,0.324
		c-1.906,0.915-3.346,2.507-4.042,4.499c-0.705,1.992-0.591,4.137,0.324,6.034c0.906,1.906,2.507,3.346,4.499,4.042
		c0.858,0.315,1.744,0.458,2.621,0.458c3.251,0,6.31-2.03,7.454-5.271C42.394,29.017,42.28,26.872,41.365,24.966z M39.887,30.37
		c-1.096,3.117-4.528,4.757-7.645,3.66c-3.117-1.106-4.757-4.528-3.66-7.645c0.534-1.516,1.63-2.726,3.069-3.422
		c0.82-0.391,1.697-0.581,2.583-0.581c0.667,0,1.344,0.114,2.002,0.343c1.506,0.534,2.717,1.62,3.413,3.06
		C40.335,27.234,40.421,28.864,39.887,30.37z M41.365,24.966c-0.906-1.897-2.507-3.336-4.499-4.042
		c-1.992-0.696-4.127-0.581-6.034,0.324c-1.906,0.915-3.346,2.507-4.042,4.499c-0.705,1.992-0.591,4.137,0.324,6.034
		c0.906,1.906,2.507,3.346,4.499,4.042c0.858,0.315,1.744,0.458,2.621,0.458c3.251,0,6.31-2.03,7.454-5.271
		C42.394,29.017,42.28,26.872,41.365,24.966z M39.887,30.37c-1.096,3.117-4.528,4.757-7.645,3.66
		c-3.117-1.106-4.757-4.528-3.66-7.645c0.534-1.516,1.63-2.726,3.069-3.422c0.82-0.391,1.697-0.581,2.583-0.581
		c0.667,0,1.344,0.114,2.002,0.343c1.506,0.534,2.717,1.62,3.413,3.06C40.335,27.234,40.421,28.864,39.887,30.37z M29.364,15.138
		l-4.585,0.372l0.153,1.897l4.585-0.362L29.364,15.138z M27.247,37.357l-4.585,0.362l0.152,1.906l4.585-0.372L27.247,37.357z
		 M18.792,43.706l-4.595,0.362l0.152,1.906l4.585-0.372L18.792,43.706z M18.792,43.706l-4.595,0.362l0.152,1.906l4.585-0.372
		L18.792,43.706z M27.247,37.357l-4.585,0.362l0.152,1.906l4.585-0.372L27.247,37.357z M29.364,15.138l-4.585,0.372l0.153,1.897
		l4.585-0.362L29.364,15.138z M41.365,24.966c-0.906-1.897-2.507-3.336-4.499-4.042c-1.992-0.696-4.127-0.581-6.034,0.324
		c-1.906,0.915-3.346,2.507-4.042,4.499c-0.705,1.992-0.591,4.137,0.324,6.034c0.906,1.906,2.507,3.346,4.499,4.042
		c0.858,0.315,1.744,0.458,2.621,0.458c3.251,0,6.31-2.03,7.454-5.271C42.394,29.017,42.28,26.872,41.365,24.966z M39.887,30.37
		c-1.096,3.117-4.528,4.757-7.645,3.66c-3.117-1.106-4.757-4.528-3.66-7.645c0.534-1.516,1.63-2.726,3.069-3.422
		c0.82-0.391,1.697-0.581,2.583-0.581c0.667,0,1.344,0.114,2.002,0.343c1.506,0.534,2.717,1.62,3.413,3.06
		C40.335,27.234,40.421,28.864,39.887,30.37z M41.365,24.966c-0.906-1.897-2.507-3.336-4.499-4.042
		c-1.992-0.696-4.127-0.581-6.034,0.324c-1.906,0.915-3.346,2.507-4.042,4.499c-0.705,1.992-0.591,4.137,0.324,6.034
		c0.906,1.906,2.507,3.346,4.499,4.042c0.858,0.315,1.744,0.458,2.621,0.458c3.251,0,6.31-2.03,7.454-5.271
		C42.394,29.017,42.28,26.872,41.365,24.966z M39.887,30.37c-1.096,3.117-4.528,4.757-7.645,3.66
		c-3.117-1.106-4.757-4.528-3.66-7.645c0.534-1.516,1.63-2.726,3.069-3.422c0.82-0.391,1.697-0.581,2.583-0.581
		c0.667,0,1.344,0.114,2.002,0.343c1.506,0.534,2.717,1.62,3.413,3.06C40.335,27.234,40.421,28.864,39.887,30.37z M29.364,15.138
		l-4.585,0.372l0.153,1.897l4.585-0.362L29.364,15.138z M27.247,37.357l-4.585,0.362l0.152,1.906l4.585-0.372L27.247,37.357z
		 M18.792,43.706l-4.595,0.362l0.152,1.906l4.585-0.372L18.792,43.706z"/>
</g>
<g id="Layer_1">
</g>
</svg>
